<?xml version="1.0" encoding="utf-8" standalone="no"?>
<!DOCTYPE svg PUBLIC "-//W3C//DTD SVG 1.1//EN"
  "http://www.w3.org/Graphics/SVG/1.1/DTD/svg11.dtd">
<svg xmlns:xlink="http://www.w3.org/1999/xlink" width="460.8pt" height="345.6pt" viewBox="0 0 460.8 345.6" xmlns="http://www.w3.org/2000/svg" version="1.1">
 <metadata>
  <rdf:RDF xmlns:dc="http://purl.org/dc/elements/1.1/" xmlns:cc="http://creativecommons.org/ns#" xmlns:rdf="http://www.w3.org/1999/02/22-rdf-syntax-ns#">
   <cc:Work>
    <dc:type rdf:resource="http://purl.org/dc/dcmitype/StillImage"/>
    <dc:date>2022-06-26T12:40:12.828743</dc:date>
    <dc:format>image/svg+xml</dc:format>
    <dc:creator>
     <cc:Agent>
      <dc:title>Matplotlib v3.5.1, https://matplotlib.org/</dc:title>
     </cc:Agent>
    </dc:creator>
   </cc:Work>
  </rdf:RDF>
 </metadata>
 <defs>
  <style type="text/css">*{stroke-linejoin: round; stroke-linecap: butt}</style>
 </defs>
 <g id="figure_1">
  <g id="patch_1">
   <path d="M 0 345.6 
L 460.8 345.6 
L 460.8 0 
L 0 0 
z
" style="fill: #ffffff"/>
  </g>
  <g id="axes_1">
   <g id="patch_2">
    <path d="M 57.6 307.584 
L 414.72 307.584 
L 414.72 41.472 
L 57.6 41.472 
z
" style="fill: #ffffff"/>
   </g>
   <g id="matplotlib.axis_1">
    <g id="xtick_1">
     <g id="line2d_1">
      <path d="M 91.670889 307.584 
L 91.670889 41.472 
" clip-path="url(#pd40b85e2d3)" style="fill: none; stroke: #d3d3d3; stroke-width: 0.8; stroke-linecap: square"/>
     </g>
     <g id="line2d_2">
      <defs>
       <path id="m1254510036" d="M 0 0 
L 0 3.5 
" style="stroke: #000000; stroke-width: 0.8"/>
      </defs>
      <g>
       <use xlink:href="#m1254510036" x="91.670889" y="307.584" style="stroke: #000000; stroke-width: 0.8"/>
      </g>
     </g>
     <g id="text_1">
      <!-- 2022-01 -->
      <g transform="translate(70.779483 322.182437)scale(0.1 -0.1)">
       <defs>
        <path id="DejaVuSans-32" d="M 1228 531 
L 3431 531 
L 3431 0 
L 469 0 
L 469 531 
Q 828 903 1448 1529 
Q 2069 2156 2228 2338 
Q 2531 2678 2651 2914 
Q 2772 3150 2772 3378 
Q 2772 3750 2511 3984 
Q 2250 4219 1831 4219 
Q 1534 4219 1204 4116 
Q 875 4013 500 3803 
L 500 4441 
Q 881 4594 1212 4672 
Q 1544 4750 1819 4750 
Q 2544 4750 2975 4387 
Q 3406 4025 3406 3419 
Q 3406 3131 3298 2873 
Q 3191 2616 2906 2266 
Q 2828 2175 2409 1742 
Q 1991 1309 1228 531 
z
" transform="scale(0.015625)"/>
        <path id="DejaVuSans-30" d="M 2034 4250 
Q 1547 4250 1301 3770 
Q 1056 3291 1056 2328 
Q 1056 1369 1301 889 
Q 1547 409 2034 409 
Q 2525 409 2770 889 
Q 3016 1369 3016 2328 
Q 3016 3291 2770 3770 
Q 2525 4250 2034 4250 
z
M 2034 4750 
Q 2819 4750 3233 4129 
Q 3647 3509 3647 2328 
Q 3647 1150 3233 529 
Q 2819 -91 2034 -91 
Q 1250 -91 836 529 
Q 422 1150 422 2328 
Q 422 3509 836 4129 
Q 1250 4750 2034 4750 
z
" transform="scale(0.015625)"/>
        <path id="DejaVuSans-2d" d="M 313 2009 
L 1997 2009 
L 1997 1497 
L 313 1497 
L 313 2009 
z
" transform="scale(0.015625)"/>
        <path id="DejaVuSans-31" d="M 794 531 
L 1825 531 
L 1825 4091 
L 703 3866 
L 703 4441 
L 1819 4666 
L 2450 4666 
L 2450 531 
L 3481 531 
L 3481 0 
L 794 0 
L 794 531 
z
" transform="scale(0.015625)"/>
       </defs>
       <use xlink:href="#DejaVuSans-32"/>
       <use xlink:href="#DejaVuSans-30" x="63.623047"/>
       <use xlink:href="#DejaVuSans-32" x="127.246094"/>
       <use xlink:href="#DejaVuSans-32" x="190.869141"/>
       <use xlink:href="#DejaVuSans-2d" x="254.492188"/>
       <use xlink:href="#DejaVuSans-30" x="290.576172"/>
       <use xlink:href="#DejaVuSans-31" x="354.199219"/>
      </g>
     </g>
    </g>
    <g id="xtick_2">
     <g id="line2d_3">
      <path d="M 146.969191 307.584 
L 146.969191 41.472 
" clip-path="url(#pd40b85e2d3)" style="fill: none; stroke: #d3d3d3; stroke-width: 0.8; stroke-linecap: square"/>
     </g>
     <g id="line2d_4">
      <g>
       <use xlink:href="#m1254510036" x="146.969191" y="307.584" style="stroke: #000000; stroke-width: 0.8"/>
      </g>
     </g>
     <g id="text_2">
      <!-- 2022-02 -->
      <g transform="translate(126.077785 322.182437)scale(0.1 -0.1)">
       <use xlink:href="#DejaVuSans-32"/>
       <use xlink:href="#DejaVuSans-30" x="63.623047"/>
       <use xlink:href="#DejaVuSans-32" x="127.246094"/>
       <use xlink:href="#DejaVuSans-32" x="190.869141"/>
       <use xlink:href="#DejaVuSans-2d" x="254.492188"/>
       <use xlink:href="#DejaVuSans-30" x="290.576172"/>
       <use xlink:href="#DejaVuSans-32" x="354.199219"/>
      </g>
     </g>
    </g>
    <g id="xtick_3">
     <g id="line2d_5">
      <path d="M 196.916044 307.584 
L 196.916044 41.472 
" clip-path="url(#pd40b85e2d3)" style="fill: none; stroke: #d3d3d3; stroke-width: 0.8; stroke-linecap: square"/>
     </g>
     <g id="line2d_6">
      <g>
       <use xlink:href="#m1254510036" x="196.916044" y="307.584" style="stroke: #000000; stroke-width: 0.8"/>
      </g>
     </g>
     <g id="text_3">
      <!-- 2022-03 -->
      <g transform="translate(176.024638 322.182437)scale(0.1 -0.1)">
       <defs>
        <path id="DejaVuSans-33" d="M 2597 2516 
Q 3050 2419 3304 2112 
Q 3559 1806 3559 1356 
Q 3559 666 3084 287 
Q 2609 -91 1734 -91 
Q 1441 -91 1130 -33 
Q 819 25 488 141 
L 488 750 
Q 750 597 1062 519 
Q 1375 441 1716 441 
Q 2309 441 2620 675 
Q 2931 909 2931 1356 
Q 2931 1769 2642 2001 
Q 2353 2234 1838 2234 
L 1294 2234 
L 1294 2753 
L 1863 2753 
Q 2328 2753 2575 2939 
Q 2822 3125 2822 3475 
Q 2822 3834 2567 4026 
Q 2313 4219 1838 4219 
Q 1578 4219 1281 4162 
Q 984 4106 628 3988 
L 628 4550 
Q 988 4650 1302 4700 
Q 1616 4750 1894 4750 
Q 2613 4750 3031 4423 
Q 3450 4097 3450 3541 
Q 3450 3153 3228 2886 
Q 3006 2619 2597 2516 
z
" transform="scale(0.015625)"/>
       </defs>
       <use xlink:href="#DejaVuSans-32"/>
       <use xlink:href="#DejaVuSans-30" x="63.623047"/>
       <use xlink:href="#DejaVuSans-32" x="127.246094"/>
       <use xlink:href="#DejaVuSans-32" x="190.869141"/>
       <use xlink:href="#DejaVuSans-2d" x="254.492188"/>
       <use xlink:href="#DejaVuSans-30" x="290.576172"/>
       <use xlink:href="#DejaVuSans-33" x="354.199219"/>
      </g>
     </g>
    </g>
    <g id="xtick_4">
     <g id="line2d_7">
      <path d="M 252.214346 307.584 
L 252.214346 41.472 
" clip-path="url(#pd40b85e2d3)" style="fill: none; stroke: #d3d3d3; stroke-width: 0.8; stroke-linecap: square"/>
     </g>
     <g id="line2d_8">
      <g>
       <use xlink:href="#m1254510036" x="252.214346" y="307.584" style="stroke: #000000; stroke-width: 0.8"/>
      </g>
     </g>
     <g id="text_4">
      <!-- 2022-04 -->
      <g transform="translate(231.322939 322.182437)scale(0.1 -0.1)">
       <defs>
        <path id="DejaVuSans-34" d="M 2419 4116 
L 825 1625 
L 2419 1625 
L 2419 4116 
z
M 2253 4666 
L 3047 4666 
L 3047 1625 
L 3713 1625 
L 3713 1100 
L 3047 1100 
L 3047 0 
L 2419 0 
L 2419 1100 
L 313 1100 
L 313 1709 
L 2253 4666 
z
" transform="scale(0.015625)"/>
       </defs>
       <use xlink:href="#DejaVuSans-32"/>
       <use xlink:href="#DejaVuSans-30" x="63.623047"/>
       <use xlink:href="#DejaVuSans-32" x="127.246094"/>
       <use xlink:href="#DejaVuSans-32" x="190.869141"/>
       <use xlink:href="#DejaVuSans-2d" x="254.492188"/>
       <use xlink:href="#DejaVuSans-30" x="290.576172"/>
       <use xlink:href="#DejaVuSans-34" x="354.199219"/>
      </g>
     </g>
    </g>
    <g id="xtick_5">
     <g id="line2d_9">
      <path d="M 305.728831 307.584 
L 305.728831 41.472 
" clip-path="url(#pd40b85e2d3)" style="fill: none; stroke: #d3d3d3; stroke-width: 0.8; stroke-linecap: square"/>
     </g>
     <g id="line2d_10">
      <g>
       <use xlink:href="#m1254510036" x="305.728831" y="307.584" style="stroke: #000000; stroke-width: 0.8"/>
      </g>
     </g>
     <g id="text_5">
      <!-- 2022-05 -->
      <g transform="translate(284.837425 322.182437)scale(0.1 -0.1)">
       <defs>
        <path id="DejaVuSans-35" d="M 691 4666 
L 3169 4666 
L 3169 4134 
L 1269 4134 
L 1269 2991 
Q 1406 3038 1543 3061 
Q 1681 3084 1819 3084 
Q 2600 3084 3056 2656 
Q 3513 2228 3513 1497 
Q 3513 744 3044 326 
Q 2575 -91 1722 -91 
Q 1428 -91 1123 -41 
Q 819 9 494 109 
L 494 744 
Q 775 591 1075 516 
Q 1375 441 1709 441 
Q 2250 441 2565 725 
Q 2881 1009 2881 1497 
Q 2881 1984 2565 2268 
Q 2250 2553 1709 2553 
Q 1456 2553 1204 2497 
Q 953 2441 691 2322 
L 691 4666 
z
" transform="scale(0.015625)"/>
       </defs>
       <use xlink:href="#DejaVuSans-32"/>
       <use xlink:href="#DejaVuSans-30" x="63.623047"/>
       <use xlink:href="#DejaVuSans-32" x="127.246094"/>
       <use xlink:href="#DejaVuSans-32" x="190.869141"/>
       <use xlink:href="#DejaVuSans-2d" x="254.492188"/>
       <use xlink:href="#DejaVuSans-30" x="290.576172"/>
       <use xlink:href="#DejaVuSans-35" x="354.199219"/>
      </g>
     </g>
    </g>
    <g id="xtick_6">
     <g id="line2d_11">
      <path d="M 361.027133 307.584 
L 361.027133 41.472 
" clip-path="url(#pd40b85e2d3)" style="fill: none; stroke: #d3d3d3; stroke-width: 0.8; stroke-linecap: square"/>
     </g>
     <g id="line2d_12">
      <g>
       <use xlink:href="#m1254510036" x="361.027133" y="307.584" style="stroke: #000000; stroke-width: 0.8"/>
      </g>
     </g>
     <g id="text_6">
      <!-- 2022-06 -->
      <g transform="translate(340.135727 322.182437)scale(0.1 -0.1)">
       <defs>
        <path id="DejaVuSans-36" d="M 2113 2584 
Q 1688 2584 1439 2293 
Q 1191 2003 1191 1497 
Q 1191 994 1439 701 
Q 1688 409 2113 409 
Q 2538 409 2786 701 
Q 3034 994 3034 1497 
Q 3034 2003 2786 2293 
Q 2538 2584 2113 2584 
z
M 3366 4563 
L 3366 3988 
Q 3128 4100 2886 4159 
Q 2644 4219 2406 4219 
Q 1781 4219 1451 3797 
Q 1122 3375 1075 2522 
Q 1259 2794 1537 2939 
Q 1816 3084 2150 3084 
Q 2853 3084 3261 2657 
Q 3669 2231 3669 1497 
Q 3669 778 3244 343 
Q 2819 -91 2113 -91 
Q 1303 -91 875 529 
Q 447 1150 447 2328 
Q 447 3434 972 4092 
Q 1497 4750 2381 4750 
Q 2619 4750 2861 4703 
Q 3103 4656 3366 4563 
z
" transform="scale(0.015625)"/>
       </defs>
       <use xlink:href="#DejaVuSans-32"/>
       <use xlink:href="#DejaVuSans-30" x="63.623047"/>
       <use xlink:href="#DejaVuSans-32" x="127.246094"/>
       <use xlink:href="#DejaVuSans-32" x="190.869141"/>
       <use xlink:href="#DejaVuSans-2d" x="254.492188"/>
       <use xlink:href="#DejaVuSans-30" x="290.576172"/>
       <use xlink:href="#DejaVuSans-36" x="354.199219"/>
      </g>
     </g>
    </g>
    <g id="xtick_7">
     <g id="line2d_13">
      <path d="M 414.541618 307.584 
L 414.541618 41.472 
" clip-path="url(#pd40b85e2d3)" style="fill: none; stroke: #d3d3d3; stroke-width: 0.8; stroke-linecap: square"/>
     </g>
     <g id="line2d_14">
      <g>
       <use xlink:href="#m1254510036" x="414.541618" y="307.584" style="stroke: #000000; stroke-width: 0.8"/>
      </g>
     </g>
     <g id="text_7">
      <!-- 2022-07 -->
      <g transform="translate(393.650212 322.182437)scale(0.1 -0.1)">
       <defs>
        <path id="DejaVuSans-37" d="M 525 4666 
L 3525 4666 
L 3525 4397 
L 1831 0 
L 1172 0 
L 2766 4134 
L 525 4134 
L 525 4666 
z
" transform="scale(0.015625)"/>
       </defs>
       <use xlink:href="#DejaVuSans-32"/>
       <use xlink:href="#DejaVuSans-30" x="63.623047"/>
       <use xlink:href="#DejaVuSans-32" x="127.246094"/>
       <use xlink:href="#DejaVuSans-32" x="190.869141"/>
       <use xlink:href="#DejaVuSans-2d" x="254.492188"/>
       <use xlink:href="#DejaVuSans-30" x="290.576172"/>
       <use xlink:href="#DejaVuSans-37" x="354.199219"/>
      </g>
     </g>
    </g>
   </g>
   <g id="matplotlib.axis_2">
    <g id="ytick_1">
     <g id="line2d_15">
      <path d="M 57.6 307.250517 
L 414.72 307.250517 
" clip-path="url(#pd40b85e2d3)" style="fill: none; stroke: #d3d3d3; stroke-width: 0.8; stroke-linecap: square"/>
     </g>
     <g id="line2d_16">
      <defs>
       <path id="mce2b4464a5" d="M 0 0 
L -3.5 0 
" style="stroke: #000000; stroke-width: 0.8"/>
      </defs>
      <g>
       <use xlink:href="#mce2b4464a5" x="57.6" y="307.250517" style="stroke: #000000; stroke-width: 0.8"/>
      </g>
     </g>
     <g id="text_8">
      <!-- 0.765 -->
      <g transform="translate(21.971875 311.049736)scale(0.1 -0.1)">
       <defs>
        <path id="DejaVuSans-2e" d="M 684 794 
L 1344 794 
L 1344 0 
L 684 0 
L 684 794 
z
" transform="scale(0.015625)"/>
       </defs>
       <use xlink:href="#DejaVuSans-30"/>
       <use xlink:href="#DejaVuSans-2e" x="63.623047"/>
       <use xlink:href="#DejaVuSans-37" x="95.410156"/>
       <use xlink:href="#DejaVuSans-36" x="159.033203"/>
       <use xlink:href="#DejaVuSans-35" x="222.65625"/>
      </g>
     </g>
    </g>
    <g id="ytick_2">
     <g id="line2d_17">
      <path d="M 57.6 272.462214 
L 414.72 272.462214 
" clip-path="url(#pd40b85e2d3)" style="fill: none; stroke: #d3d3d3; stroke-width: 0.8; stroke-linecap: square"/>
     </g>
     <g id="line2d_18">
      <g>
       <use xlink:href="#mce2b4464a5" x="57.6" y="272.462214" style="stroke: #000000; stroke-width: 0.8"/>
      </g>
     </g>
     <g id="text_9">
      <!-- 0.770 -->
      <g transform="translate(21.971875 276.261432)scale(0.1 -0.1)">
       <use xlink:href="#DejaVuSans-30"/>
       <use xlink:href="#DejaVuSans-2e" x="63.623047"/>
       <use xlink:href="#DejaVuSans-37" x="95.410156"/>
       <use xlink:href="#DejaVuSans-37" x="159.033203"/>
       <use xlink:href="#DejaVuSans-30" x="222.65625"/>
      </g>
     </g>
    </g>
    <g id="ytick_3">
     <g id="line2d_19">
      <path d="M 57.6 237.67391 
L 414.72 237.67391 
" clip-path="url(#pd40b85e2d3)" style="fill: none; stroke: #d3d3d3; stroke-width: 0.8; stroke-linecap: square"/>
     </g>
     <g id="line2d_20">
      <g>
       <use xlink:href="#mce2b4464a5" x="57.6" y="237.67391" style="stroke: #000000; stroke-width: 0.8"/>
      </g>
     </g>
     <g id="text_10">
      <!-- 0.775 -->
      <g transform="translate(21.971875 241.473129)scale(0.1 -0.1)">
       <use xlink:href="#DejaVuSans-30"/>
       <use xlink:href="#DejaVuSans-2e" x="63.623047"/>
       <use xlink:href="#DejaVuSans-37" x="95.410156"/>
       <use xlink:href="#DejaVuSans-37" x="159.033203"/>
       <use xlink:href="#DejaVuSans-35" x="222.65625"/>
      </g>
     </g>
    </g>
    <g id="ytick_4">
     <g id="line2d_21">
      <path d="M 57.6 202.885607 
L 414.72 202.885607 
" clip-path="url(#pd40b85e2d3)" style="fill: none; stroke: #d3d3d3; stroke-width: 0.8; stroke-linecap: square"/>
     </g>
     <g id="line2d_22">
      <g>
       <use xlink:href="#mce2b4464a5" x="57.6" y="202.885607" style="stroke: #000000; stroke-width: 0.8"/>
      </g>
     </g>
     <g id="text_11">
      <!-- 0.780 -->
      <g transform="translate(21.971875 206.684825)scale(0.1 -0.1)">
       <defs>
        <path id="DejaVuSans-38" d="M 2034 2216 
Q 1584 2216 1326 1975 
Q 1069 1734 1069 1313 
Q 1069 891 1326 650 
Q 1584 409 2034 409 
Q 2484 409 2743 651 
Q 3003 894 3003 1313 
Q 3003 1734 2745 1975 
Q 2488 2216 2034 2216 
z
M 1403 2484 
Q 997 2584 770 2862 
Q 544 3141 544 3541 
Q 544 4100 942 4425 
Q 1341 4750 2034 4750 
Q 2731 4750 3128 4425 
Q 3525 4100 3525 3541 
Q 3525 3141 3298 2862 
Q 3072 2584 2669 2484 
Q 3125 2378 3379 2068 
Q 3634 1759 3634 1313 
Q 3634 634 3220 271 
Q 2806 -91 2034 -91 
Q 1263 -91 848 271 
Q 434 634 434 1313 
Q 434 1759 690 2068 
Q 947 2378 1403 2484 
z
M 1172 3481 
Q 1172 3119 1398 2916 
Q 1625 2713 2034 2713 
Q 2441 2713 2670 2916 
Q 2900 3119 2900 3481 
Q 2900 3844 2670 4047 
Q 2441 4250 2034 4250 
Q 1625 4250 1398 4047 
Q 1172 3844 1172 3481 
z
" transform="scale(0.015625)"/>
       </defs>
       <use xlink:href="#DejaVuSans-30"/>
       <use xlink:href="#DejaVuSans-2e" x="63.623047"/>
       <use xlink:href="#DejaVuSans-37" x="95.410156"/>
       <use xlink:href="#DejaVuSans-38" x="159.033203"/>
       <use xlink:href="#DejaVuSans-30" x="222.65625"/>
      </g>
     </g>
    </g>
    <g id="ytick_5">
     <g id="line2d_23">
      <path d="M 57.6 168.097303 
L 414.72 168.097303 
" clip-path="url(#pd40b85e2d3)" style="fill: none; stroke: #d3d3d3; stroke-width: 0.8; stroke-linecap: square"/>
     </g>
     <g id="line2d_24">
      <g>
       <use xlink:href="#mce2b4464a5" x="57.6" y="168.097303" style="stroke: #000000; stroke-width: 0.8"/>
      </g>
     </g>
     <g id="text_12">
      <!-- 0.785 -->
      <g transform="translate(21.971875 171.896522)scale(0.1 -0.1)">
       <use xlink:href="#DejaVuSans-30"/>
       <use xlink:href="#DejaVuSans-2e" x="63.623047"/>
       <use xlink:href="#DejaVuSans-37" x="95.410156"/>
       <use xlink:href="#DejaVuSans-38" x="159.033203"/>
       <use xlink:href="#DejaVuSans-35" x="222.65625"/>
      </g>
     </g>
    </g>
    <g id="ytick_6">
     <g id="line2d_25">
      <path d="M 57.6 133.309 
L 414.72 133.309 
" clip-path="url(#pd40b85e2d3)" style="fill: none; stroke: #d3d3d3; stroke-width: 0.8; stroke-linecap: square"/>
     </g>
     <g id="line2d_26">
      <g>
       <use xlink:href="#mce2b4464a5" x="57.6" y="133.309" style="stroke: #000000; stroke-width: 0.8"/>
      </g>
     </g>
     <g id="text_13">
      <!-- 0.790 -->
      <g transform="translate(21.971875 137.108218)scale(0.1 -0.1)">
       <defs>
        <path id="DejaVuSans-39" d="M 703 97 
L 703 672 
Q 941 559 1184 500 
Q 1428 441 1663 441 
Q 2288 441 2617 861 
Q 2947 1281 2994 2138 
Q 2813 1869 2534 1725 
Q 2256 1581 1919 1581 
Q 1219 1581 811 2004 
Q 403 2428 403 3163 
Q 403 3881 828 4315 
Q 1253 4750 1959 4750 
Q 2769 4750 3195 4129 
Q 3622 3509 3622 2328 
Q 3622 1225 3098 567 
Q 2575 -91 1691 -91 
Q 1453 -91 1209 -44 
Q 966 3 703 97 
z
M 1959 2075 
Q 2384 2075 2632 2365 
Q 2881 2656 2881 3163 
Q 2881 3666 2632 3958 
Q 2384 4250 1959 4250 
Q 1534 4250 1286 3958 
Q 1038 3666 1038 3163 
Q 1038 2656 1286 2365 
Q 1534 2075 1959 2075 
z
" transform="scale(0.015625)"/>
       </defs>
       <use xlink:href="#DejaVuSans-30"/>
       <use xlink:href="#DejaVuSans-2e" x="63.623047"/>
       <use xlink:href="#DejaVuSans-37" x="95.410156"/>
       <use xlink:href="#DejaVuSans-39" x="159.033203"/>
       <use xlink:href="#DejaVuSans-30" x="222.65625"/>
      </g>
     </g>
    </g>
    <g id="ytick_7">
     <g id="line2d_27">
      <path d="M 57.6 98.520696 
L 414.72 98.520696 
" clip-path="url(#pd40b85e2d3)" style="fill: none; stroke: #d3d3d3; stroke-width: 0.8; stroke-linecap: square"/>
     </g>
     <g id="line2d_28">
      <g>
       <use xlink:href="#mce2b4464a5" x="57.6" y="98.520696" style="stroke: #000000; stroke-width: 0.8"/>
      </g>
     </g>
     <g id="text_14">
      <!-- 0.795 -->
      <g transform="translate(21.971875 102.319915)scale(0.1 -0.1)">
       <use xlink:href="#DejaVuSans-30"/>
       <use xlink:href="#DejaVuSans-2e" x="63.623047"/>
       <use xlink:href="#DejaVuSans-37" x="95.410156"/>
       <use xlink:href="#DejaVuSans-39" x="159.033203"/>
       <use xlink:href="#DejaVuSans-35" x="222.65625"/>
      </g>
     </g>
    </g>
    <g id="ytick_8">
     <g id="line2d_29">
      <path d="M 57.6 63.732393 
L 414.72 63.732393 
" clip-path="url(#pd40b85e2d3)" style="fill: none; stroke: #d3d3d3; stroke-width: 0.8; stroke-linecap: square"/>
     </g>
     <g id="line2d_30">
      <g>
       <use xlink:href="#mce2b4464a5" x="57.6" y="63.732393" style="stroke: #000000; stroke-width: 0.8"/>
      </g>
     </g>
     <g id="text_15">
      <!-- 0.800 -->
      <g transform="translate(21.971875 67.531612)scale(0.1 -0.1)">
       <use xlink:href="#DejaVuSans-30"/>
       <use xlink:href="#DejaVuSans-2e" x="63.623047"/>
       <use xlink:href="#DejaVuSans-38" x="95.410156"/>
       <use xlink:href="#DejaVuSans-30" x="159.033203"/>
       <use xlink:href="#DejaVuSans-30" x="222.65625"/>
      </g>
     </g>
    </g>
    <g id="text_16">
     <!-- CADUSD -->
     <g transform="translate(15.892187 195.973312)rotate(-90)scale(0.1 -0.1)">
      <defs>
       <path id="DejaVuSans-43" d="M 4122 4306 
L 4122 3641 
Q 3803 3938 3442 4084 
Q 3081 4231 2675 4231 
Q 1875 4231 1450 3742 
Q 1025 3253 1025 2328 
Q 1025 1406 1450 917 
Q 1875 428 2675 428 
Q 3081 428 3442 575 
Q 3803 722 4122 1019 
L 4122 359 
Q 3791 134 3420 21 
Q 3050 -91 2638 -91 
Q 1578 -91 968 557 
Q 359 1206 359 2328 
Q 359 3453 968 4101 
Q 1578 4750 2638 4750 
Q 3056 4750 3426 4639 
Q 3797 4528 4122 4306 
z
" transform="scale(0.015625)"/>
       <path id="DejaVuSans-41" d="M 2188 4044 
L 1331 1722 
L 3047 1722 
L 2188 4044 
z
M 1831 4666 
L 2547 4666 
L 4325 0 
L 3669 0 
L 3244 1197 
L 1141 1197 
L 716 0 
L 50 0 
L 1831 4666 
z
" transform="scale(0.015625)"/>
       <path id="DejaVuSans-44" d="M 1259 4147 
L 1259 519 
L 2022 519 
Q 2988 519 3436 956 
Q 3884 1394 3884 2338 
Q 3884 3275 3436 3711 
Q 2988 4147 2022 4147 
L 1259 4147 
z
M 628 4666 
L 1925 4666 
Q 3281 4666 3915 4102 
Q 4550 3538 4550 2338 
Q 4550 1131 3912 565 
Q 3275 0 1925 0 
L 628 0 
L 628 4666 
z
" transform="scale(0.015625)"/>
       <path id="DejaVuSans-55" d="M 556 4666 
L 1191 4666 
L 1191 1831 
Q 1191 1081 1462 751 
Q 1734 422 2344 422 
Q 2950 422 3222 751 
Q 3494 1081 3494 1831 
L 3494 4666 
L 4128 4666 
L 4128 1753 
Q 4128 841 3676 375 
Q 3225 -91 2344 -91 
Q 1459 -91 1007 375 
Q 556 841 556 1753 
L 556 4666 
z
" transform="scale(0.015625)"/>
       <path id="DejaVuSans-53" d="M 3425 4513 
L 3425 3897 
Q 3066 4069 2747 4153 
Q 2428 4238 2131 4238 
Q 1616 4238 1336 4038 
Q 1056 3838 1056 3469 
Q 1056 3159 1242 3001 
Q 1428 2844 1947 2747 
L 2328 2669 
Q 3034 2534 3370 2195 
Q 3706 1856 3706 1288 
Q 3706 609 3251 259 
Q 2797 -91 1919 -91 
Q 1588 -91 1214 -16 
Q 841 59 441 206 
L 441 856 
Q 825 641 1194 531 
Q 1563 422 1919 422 
Q 2459 422 2753 634 
Q 3047 847 3047 1241 
Q 3047 1584 2836 1778 
Q 2625 1972 2144 2069 
L 1759 2144 
Q 1053 2284 737 2584 
Q 422 2884 422 3419 
Q 422 4038 858 4394 
Q 1294 4750 2059 4750 
Q 2388 4750 2728 4690 
Q 3069 4631 3425 4513 
z
" transform="scale(0.015625)"/>
      </defs>
      <use xlink:href="#DejaVuSans-43"/>
      <use xlink:href="#DejaVuSans-41" x="69.824219"/>
      <use xlink:href="#DejaVuSans-44" x="138.232422"/>
      <use xlink:href="#DejaVuSans-55" x="215.234375"/>
      <use xlink:href="#DejaVuSans-53" x="288.427734"/>
      <use xlink:href="#DejaVuSans-44" x="351.904297"/>
     </g>
    </g>
   </g>
   <g id="line2d_31">
    <path d="M 73.832727 245.924709 
L 75.616543 215.844629 
L 77.40036 204.31904 
L 82.751808 200.127162 
L 84.535624 188.66212 
L 86.319441 199.70333 
L 88.103257 186.789295 
L 89.887073 170.474647 
L 95.238521 133.557261 
L 97.022338 173.428618 
L 98.806154 153.285378 
L 100.58997 177.191687 
L 102.373786 164.384647 
L 107.725235 128.385841 
L 109.509051 136.247892 
L 111.292867 98.02998 
L 113.076683 64.44478 
L 114.8605 67.203423 
L 120.211948 82.460563 
L 121.995764 70.714763 
L 123.77958 62.619231 
L 125.563397 68.581916 
L 127.347213 63.866261 
L 132.698661 90.76345 
L 134.482478 119.060697 
L 136.266294 114.867575 
L 138.05011 133.427042 
L 139.833926 171.031186 
L 145.185375 176.764122 
L 146.969191 158.883533 
L 148.753007 146.898031 
L 150.536823 145.514977 
L 152.320639 142.097776 
L 157.672088 170.859911 
L 159.455904 136.50833 
L 161.23972 153.71626 
L 163.023536 141.058516 
L 164.807353 165.157249 
L 170.158801 161.506567 
L 171.942617 163.697889 
L 173.726434 161.592412 
L 175.51025 149.402873 
L 177.294066 153.457897 
L 182.645514 175.695832 
L 184.429331 175.438712 
L 186.213147 180.181323 
L 187.996963 165.972982 
L 189.780779 198.219501 
L 195.132228 175.096577 
L 196.916044 136.898571 
L 198.69986 161.506567 
L 200.483676 128.0379 
L 202.267493 138.546209 
L 207.618941 157.46357 
L 211.186573 231.722589 
L 212.97039 193.551538 
L 214.754206 175.395997 
L 220.105654 166.616195 
L 221.889471 203.134216 
L 223.673287 180.906649 
L 225.457103 145.687911 
L 227.240919 121.721884 
L 232.592368 110.448437 
L 234.376184 102.644031 
L 236.16 100.359814 
L 237.943816 89.969697 
L 239.727632 72.801579 
L 243.295265 57.982371 
L 245.079081 71.824939 
L 246.862897 62.796727 
L 248.646713 55.83957 
L 250.430529 63.064629 
L 255.781978 75.507554 
L 257.565794 57.580933 
L 259.34961 56.777227 
L 261.133427 91.997624 
L 262.917243 102.072977 
L 268.268691 97.369763 
L 270.052507 125.426064 
L 271.836324 122.942787 
L 273.62014 93.055546 
L 275.403956 109.222558 
L 280.755405 114.474017 
L 282.539221 107.995849 
L 284.323037 109.529028 
L 286.106853 57.580933 
L 287.890669 103.126752 
L 293.242118 160.431642 
L 295.025934 166.70204 
L 296.80975 196.777558 
L 298.593566 200.127162 
L 300.377383 196.141395 
L 305.728831 216.602717 
L 307.512647 225.433114 
L 309.296464 208.504282 
L 311.08028 167.388383 
L 312.864096 205.629934 
L 318.215544 243.924568 
L 319.999361 281.270349 
L 321.783177 290.628669 
L 323.566993 275.507968 
L 325.350809 287.307681 
L 330.702258 239.250385 
L 332.486074 215.338684 
L 334.26989 197.626053 
L 336.053706 229.711251 
L 337.837522 202.499297 
L 343.188971 199.279912 
L 344.972787 188.704835 
L 346.756603 203.684535 
L 348.54042 202.753099 
L 350.324236 182.698606 
L 355.675684 161.592412 
L 357.4595 131.993809 
L 359.243317 124.947075 
L 361.027133 136.378526 
L 362.810949 94.640978 
L 368.162398 101.282541 
L 369.946214 99.128958 
L 371.73003 79.982263 
L 373.513846 86.791783 
L 375.297662 152.552587 
L 380.649111 193.169176 
L 382.432927 232.141445 
L 384.216743 254.99149 
L 386.000559 225.181385 
L 387.784376 258.725944 
L 393.135824 278.020275 
L 394.91964 270.310837 
L 396.703457 249.630133 
L 398.487273 262.8693 
L 398.487273 262.8693 
" clip-path="url(#pd40b85e2d3)" style="fill: none; stroke: #000000; stroke-width: 1.5; stroke-linecap: square"/>
   </g>
   <g id="line2d_32">
    <path d="M 84.535624 210.975532 
L 86.319441 201.731256 
L 88.103257 195.920189 
L 89.887073 189.151311 
L 95.238521 175.83733 
L 97.022338 172.79063 
L 98.806154 163.50704 
L 100.58997 161.587518 
L 102.373786 160.369518 
L 107.725235 159.335234 
L 109.509051 151.899089 
L 111.292867 140.848009 
L 113.076683 118.298628 
L 114.8605 98.862383 
L 120.211948 89.677328 
L 121.995764 76.570702 
L 123.77958 69.488552 
L 125.563397 70.315979 
L 127.347213 69.648547 
L 132.698661 71.309124 
L 134.482478 80.978311 
L 136.266294 91.42798 
L 138.05011 104.397005 
L 139.833926 125.82999 
L 145.185375 143.030125 
L 146.969191 150.994692 
L 148.753007 157.400783 
L 150.536823 159.81837 
L 152.320639 154.031688 
L 157.672088 152.850846 
L 159.455904 148.375805 
L 161.23972 149.739451 
L 163.023536 148.848159 
L 164.807353 153.460053 
L 170.158801 151.589384 
L 171.942617 157.027296 
L 175.51025 160.271398 
L 177.294066 157.931527 
L 182.645514 160.76938 
L 184.429331 163.117545 
L 186.213147 166.835327 
L 187.996963 170.149349 
L 189.780779 179.10167 
L 195.132228 178.981819 
L 196.916044 171.273791 
L 198.69986 167.53884 
L 200.483676 159.951823 
L 202.267493 148.017165 
L 207.618941 144.490563 
L 209.402757 156.067494 
L 211.186573 170.110698 
L 212.97039 183.213426 
L 214.754206 190.583383 
L 220.105654 192.413908 
L 221.889471 194.084107 
L 227.240919 163.613371 
L 232.592368 152.37982 
L 234.376184 132.281782 
L 236.16 116.172415 
L 237.943816 105.028773 
L 239.727632 95.244712 
L 243.295265 84.751498 
L 245.079081 78.58768 
L 246.862897 71.075063 
L 248.646713 64.249037 
L 250.430529 62.301647 
L 255.781978 65.806684 
L 257.565794 62.957882 
L 259.34961 61.753983 
L 261.133427 68.985593 
L 262.917243 76.787263 
L 268.268691 81.159705 
L 271.836324 107.961843 
L 273.62014 108.173427 
L 275.403956 109.603344 
L 280.755405 113.024194 
L 282.539221 109.538151 
L 284.323037 106.855399 
L 286.106853 99.760477 
L 287.890669 98.541316 
L 293.242118 107.732841 
L 295.025934 119.474079 
L 296.80975 136.923785 
L 298.593566 165.433031 
L 300.377383 184.035959 
L 305.728831 195.270175 
L 307.512647 207.016389 
L 309.296464 209.361734 
L 311.08028 202.813978 
L 312.864096 204.711686 
L 318.215544 210.176056 
L 319.999361 221.343503 
L 321.783177 237.768381 
L 323.566993 259.392298 
L 325.350809 275.727847 
L 330.702258 274.79301 
L 332.486074 261.606677 
L 334.26989 243.006154 
L 336.053706 233.846811 
L 337.837522 216.885134 
L 343.188971 208.891039 
L 344.972787 203.564269 
L 346.756603 204.775966 
L 348.54042 199.384336 
L 350.324236 195.424197 
L 355.675684 187.886697 
L 357.4595 176.544492 
L 359.243317 160.797 
L 361.027133 147.522085 
L 362.810949 129.91056 
L 368.162398 117.848586 
L 369.946214 111.275616 
L 371.73003 102.282653 
L 373.513846 92.365305 
L 375.297662 103.947627 
L 380.649111 122.324954 
L 382.432927 148.927451 
L 384.216743 183.929296 
L 386.000559 211.607217 
L 387.784376 232.841888 
L 393.135824 249.812108 
L 394.91964 257.445986 
L 396.703457 256.373715 
L 398.487273 263.911298 
L 398.487273 263.911298 
" clip-path="url(#pd40b85e2d3)" style="fill: none; stroke: #008000; stroke-width: 1.5; stroke-linecap: square"/>
   </g>
   <g id="line2d_33">
    <path d="M 84.535624 189.152165 
L 86.319441 191.941314 
L 88.103257 188.196779 
L 89.887073 177.042939 
L 95.238521 149.999522 
L 97.022338 147.964817 
L 98.806154 142.949071 
L 100.58997 143.440179 
L 102.373786 142.771728 
L 107.725235 139.730141 
L 109.509051 131.928115 
L 111.292867 109.684382 
L 113.076683 80.026888 
L 114.8605 65.482506 
L 120.211948 60.383882 
L 121.995764 62.748012 
L 123.77958 61.620489 
L 125.563397 62.906781 
L 127.347213 61.754429 
L 132.698661 59.938414 
L 134.482478 56.845523 
L 136.266294 65.957338 
L 138.05011 77.029073 
L 139.833926 96.264286 
L 145.185375 113.952969 
L 146.969191 124.814789 
L 148.753007 139.73745 
L 150.536823 145.806929 
L 152.320639 139.835336 
L 157.672088 140.959681 
L 159.455904 135.183442 
L 161.23972 136.386616 
L 163.023536 135.003184 
L 164.807353 138.620881 
L 170.158801 139.0864 
L 171.942617 147.069614 
L 173.726434 148.676647 
L 175.51025 154.006258 
L 177.294066 151.763359 
L 182.645514 150.587193 
L 184.429331 150.934037 
L 186.213147 152.574468 
L 187.996963 159.47897 
L 189.780779 167.226943 
L 195.132228 167.061188 
L 196.916044 148.747232 
L 198.69986 145.31223 
L 200.483676 131.46434 
L 202.267493 128.473933 
L 207.618941 130.159591 
L 209.402757 130.45942 
L 211.186573 127.299643 
L 212.97039 146.97777 
L 214.754206 162.986003 
L 220.105654 167.377877 
L 221.889471 168.576388 
L 223.673287 169.402713 
L 225.457103 153.408149 
L 227.240919 132.204016 
L 232.592368 113.223976 
L 234.376184 100.61672 
L 236.16 97.680657 
L 237.943816 93.172396 
L 239.727632 80.722423 
L 243.295265 65.70958 
L 245.079081 61.949106 
L 246.862897 58.822514 
L 248.646713 56.460589 
L 250.430529 56.138553 
L 255.781978 57.960533 
L 257.565794 55.258636 
L 259.34961 53.568 
L 261.133427 54.100552 
L 262.917243 56.528655 
L 268.268691 58.978321 
L 270.052507 69.974868 
L 271.836324 92.704428 
L 273.62014 93.187831 
L 275.403956 95.009387 
L 280.755405 100.106317 
L 282.539221 98.604241 
L 284.323037 98.753986 
L 286.106853 76.051939 
L 287.890669 75.288637 
L 293.242118 71.27434 
L 295.025934 74.460462 
L 296.80975 81.113021 
L 298.593566 126.398242 
L 300.377383 165.158424 
L 305.728831 177.25742 
L 307.512647 193.772202 
L 309.296464 197.408586 
L 311.08028 180.266083 
L 312.864096 182.468541 
L 318.215544 181.77717 
L 319.999361 178.262045 
L 321.783177 186.021995 
L 323.566993 224.593888 
L 325.350809 257.030633 
L 330.702258 254.098021 
L 334.26989 204.737559 
L 336.053706 200.087145 
L 337.837522 199.24307 
L 343.188971 195.333925 
L 344.972787 188.078633 
L 346.756603 189.638011 
L 348.54042 193.187443 
L 350.324236 186.151886 
L 355.675684 170.641722 
L 357.4595 146.255574 
L 359.243317 127.799014 
L 361.027133 123.4893 
L 362.810949 105.83519 
L 368.162398 99.09451 
L 369.946214 92.964561 
L 371.73003 81.490966 
L 373.513846 83.493345 
L 375.297662 75.393178 
L 380.649111 73.523884 
L 382.432927 82.766056 
L 384.216743 117.071581 
L 386.000559 171.872099 
L 387.784376 206.414217 
L 393.135824 228.476058 
L 394.91964 237.213135 
L 396.703457 235.838457 
L 398.487273 253.049177 
L 398.487273 253.049177 
" clip-path="url(#pd40b85e2d3)" style="fill: none; stroke: #ff0000; stroke-width: 1.5; stroke-linecap: square"/>
   </g>
   <g id="line2d_34">
    <path d="M 84.535624 232.7989 
L 86.319441 211.521198 
L 88.103257 203.6436 
L 89.887073 201.259682 
L 95.238521 201.675139 
L 97.022338 197.616444 
L 98.806154 184.065008 
L 100.58997 179.734857 
L 102.373786 177.967308 
L 107.725235 178.940327 
L 109.509051 171.870063 
L 111.292867 172.011636 
L 113.076683 156.570367 
L 114.8605 132.242261 
L 120.211948 118.970773 
L 121.995764 90.393391 
L 123.77958 77.356616 
L 125.563397 77.725178 
L 127.347213 77.542665 
L 132.698661 82.679834 
L 134.482478 105.111099 
L 136.266294 116.898621 
L 138.05011 131.764937 
L 139.833926 155.395694 
L 145.185375 172.10728 
L 146.969191 177.174595 
L 148.753007 175.064116 
L 150.536823 173.829811 
L 152.320639 168.22804 
L 157.672088 164.742011 
L 159.455904 161.568169 
L 161.23972 163.092286 
L 163.023536 162.693133 
L 164.807353 168.299226 
L 170.158801 164.092369 
L 171.942617 166.984978 
L 173.726434 168.528405 
L 175.51025 166.536538 
L 177.294066 164.099696 
L 182.645514 170.951568 
L 184.429331 175.301054 
L 186.213147 181.096187 
L 187.996963 180.819728 
L 189.780779 190.976397 
L 195.132228 190.90245 
L 196.916044 193.80035 
L 198.69986 189.765449 
L 200.483676 188.439307 
L 202.267493 167.560397 
L 207.618941 158.821536 
L 209.402757 181.675568 
L 211.186573 212.921753 
L 212.97039 219.449082 
L 214.754206 218.180764 
L 220.105654 217.44994 
L 221.889471 219.591827 
L 223.673287 198.439125 
L 225.457103 195.288239 
L 227.240919 195.022727 
L 232.592368 191.535663 
L 236.16 134.664174 
L 237.943816 116.885149 
L 239.727632 109.767 
L 243.295265 103.793417 
L 245.079081 95.226254 
L 248.646713 72.037485 
L 250.430529 68.464741 
L 255.781978 73.652835 
L 257.565794 70.657129 
L 259.34961 69.939965 
L 262.917243 97.04587 
L 268.268691 103.341088 
L 270.052507 119.482593 
L 271.836324 123.219258 
L 273.62014 123.159024 
L 275.403956 124.1973 
L 280.755405 125.942071 
L 284.323037 114.956813 
L 286.106853 123.469015 
L 287.890669 121.793994 
L 293.242118 144.191341 
L 295.025934 164.487696 
L 296.80975 192.734549 
L 298.593566 204.467819 
L 300.377383 202.913494 
L 305.728831 213.282929 
L 307.512647 220.260577 
L 309.296464 221.314882 
L 311.08028 225.361873 
L 312.864096 226.954831 
L 318.215544 238.574942 
L 321.783177 289.514767 
L 323.566993 294.190707 
L 325.350809 294.425061 
L 330.702258 295.488 
L 332.486074 294.53309 
L 336.053706 267.606476 
L 337.837522 234.527198 
L 343.188971 222.448154 
L 344.972787 219.049906 
L 346.756603 219.913921 
L 348.54042 205.581228 
L 350.324236 204.696508 
L 355.675684 205.131672 
L 357.4595 206.83341 
L 359.243317 193.794986 
L 361.027133 171.554871 
L 362.810949 153.98593 
L 368.162398 136.602661 
L 369.946214 129.58667 
L 371.73003 123.074341 
L 373.513846 101.237264 
L 375.297662 132.502075 
L 380.649111 171.126023 
L 382.432927 215.088846 
L 384.216743 250.787012 
L 386.000559 251.342334 
L 387.784376 259.269559 
L 393.135824 271.148157 
L 394.91964 277.678837 
L 396.703457 276.908972 
L 398.487273 274.773418 
L 398.487273 274.773418 
" clip-path="url(#pd40b85e2d3)" style="fill: none; stroke: #0000ff; stroke-width: 1.5; stroke-linecap: square"/>
   </g>
   <g id="patch_3">
    <path d="M 57.6 307.584 
L 57.6 41.472 
" style="fill: none; stroke: #000000; stroke-width: 0.8; stroke-linejoin: miter; stroke-linecap: square"/>
   </g>
   <g id="patch_4">
    <path d="M 414.72 307.584 
L 414.72 41.472 
" style="fill: none; stroke: #000000; stroke-width: 0.8; stroke-linejoin: miter; stroke-linecap: square"/>
   </g>
   <g id="patch_5">
    <path d="M 57.6 307.584 
L 414.72 307.584 
" style="fill: none; stroke: #000000; stroke-width: 0.8; stroke-linejoin: miter; stroke-linecap: square"/>
   </g>
   <g id="patch_6">
    <path d="M 57.6 41.472 
L 414.72 41.472 
" style="fill: none; stroke: #000000; stroke-width: 0.8; stroke-linejoin: miter; stroke-linecap: square"/>
   </g>
   <g id="text_17">
    <!-- Bollinger Bands for CADUSD -->
    <g transform="translate(151.365938 35.472)scale(0.12 -0.12)">
     <defs>
      <path id="DejaVuSans-42" d="M 1259 2228 
L 1259 519 
L 2272 519 
Q 2781 519 3026 730 
Q 3272 941 3272 1375 
Q 3272 1813 3026 2020 
Q 2781 2228 2272 2228 
L 1259 2228 
z
M 1259 4147 
L 1259 2741 
L 2194 2741 
Q 2656 2741 2882 2914 
Q 3109 3088 3109 3444 
Q 3109 3797 2882 3972 
Q 2656 4147 2194 4147 
L 1259 4147 
z
M 628 4666 
L 2241 4666 
Q 2963 4666 3353 4366 
Q 3744 4066 3744 3513 
Q 3744 3084 3544 2831 
Q 3344 2578 2956 2516 
Q 3422 2416 3680 2098 
Q 3938 1781 3938 1306 
Q 3938 681 3513 340 
Q 3088 0 2303 0 
L 628 0 
L 628 4666 
z
" transform="scale(0.015625)"/>
      <path id="DejaVuSans-6f" d="M 1959 3097 
Q 1497 3097 1228 2736 
Q 959 2375 959 1747 
Q 959 1119 1226 758 
Q 1494 397 1959 397 
Q 2419 397 2687 759 
Q 2956 1122 2956 1747 
Q 2956 2369 2687 2733 
Q 2419 3097 1959 3097 
z
M 1959 3584 
Q 2709 3584 3137 3096 
Q 3566 2609 3566 1747 
Q 3566 888 3137 398 
Q 2709 -91 1959 -91 
Q 1206 -91 779 398 
Q 353 888 353 1747 
Q 353 2609 779 3096 
Q 1206 3584 1959 3584 
z
" transform="scale(0.015625)"/>
      <path id="DejaVuSans-6c" d="M 603 4863 
L 1178 4863 
L 1178 0 
L 603 0 
L 603 4863 
z
" transform="scale(0.015625)"/>
      <path id="DejaVuSans-69" d="M 603 3500 
L 1178 3500 
L 1178 0 
L 603 0 
L 603 3500 
z
M 603 4863 
L 1178 4863 
L 1178 4134 
L 603 4134 
L 603 4863 
z
" transform="scale(0.015625)"/>
      <path id="DejaVuSans-6e" d="M 3513 2113 
L 3513 0 
L 2938 0 
L 2938 2094 
Q 2938 2591 2744 2837 
Q 2550 3084 2163 3084 
Q 1697 3084 1428 2787 
Q 1159 2491 1159 1978 
L 1159 0 
L 581 0 
L 581 3500 
L 1159 3500 
L 1159 2956 
Q 1366 3272 1645 3428 
Q 1925 3584 2291 3584 
Q 2894 3584 3203 3211 
Q 3513 2838 3513 2113 
z
" transform="scale(0.015625)"/>
      <path id="DejaVuSans-67" d="M 2906 1791 
Q 2906 2416 2648 2759 
Q 2391 3103 1925 3103 
Q 1463 3103 1205 2759 
Q 947 2416 947 1791 
Q 947 1169 1205 825 
Q 1463 481 1925 481 
Q 2391 481 2648 825 
Q 2906 1169 2906 1791 
z
M 3481 434 
Q 3481 -459 3084 -895 
Q 2688 -1331 1869 -1331 
Q 1566 -1331 1297 -1286 
Q 1028 -1241 775 -1147 
L 775 -588 
Q 1028 -725 1275 -790 
Q 1522 -856 1778 -856 
Q 2344 -856 2625 -561 
Q 2906 -266 2906 331 
L 2906 616 
Q 2728 306 2450 153 
Q 2172 0 1784 0 
Q 1141 0 747 490 
Q 353 981 353 1791 
Q 353 2603 747 3093 
Q 1141 3584 1784 3584 
Q 2172 3584 2450 3431 
Q 2728 3278 2906 2969 
L 2906 3500 
L 3481 3500 
L 3481 434 
z
" transform="scale(0.015625)"/>
      <path id="DejaVuSans-65" d="M 3597 1894 
L 3597 1613 
L 953 1613 
Q 991 1019 1311 708 
Q 1631 397 2203 397 
Q 2534 397 2845 478 
Q 3156 559 3463 722 
L 3463 178 
Q 3153 47 2828 -22 
Q 2503 -91 2169 -91 
Q 1331 -91 842 396 
Q 353 884 353 1716 
Q 353 2575 817 3079 
Q 1281 3584 2069 3584 
Q 2775 3584 3186 3129 
Q 3597 2675 3597 1894 
z
M 3022 2063 
Q 3016 2534 2758 2815 
Q 2500 3097 2075 3097 
Q 1594 3097 1305 2825 
Q 1016 2553 972 2059 
L 3022 2063 
z
" transform="scale(0.015625)"/>
      <path id="DejaVuSans-72" d="M 2631 2963 
Q 2534 3019 2420 3045 
Q 2306 3072 2169 3072 
Q 1681 3072 1420 2755 
Q 1159 2438 1159 1844 
L 1159 0 
L 581 0 
L 581 3500 
L 1159 3500 
L 1159 2956 
Q 1341 3275 1631 3429 
Q 1922 3584 2338 3584 
Q 2397 3584 2469 3576 
Q 2541 3569 2628 3553 
L 2631 2963 
z
" transform="scale(0.015625)"/>
      <path id="DejaVuSans-20" transform="scale(0.015625)"/>
      <path id="DejaVuSans-61" d="M 2194 1759 
Q 1497 1759 1228 1600 
Q 959 1441 959 1056 
Q 959 750 1161 570 
Q 1363 391 1709 391 
Q 2188 391 2477 730 
Q 2766 1069 2766 1631 
L 2766 1759 
L 2194 1759 
z
M 3341 1997 
L 3341 0 
L 2766 0 
L 2766 531 
Q 2569 213 2275 61 
Q 1981 -91 1556 -91 
Q 1019 -91 701 211 
Q 384 513 384 1019 
Q 384 1609 779 1909 
Q 1175 2209 1959 2209 
L 2766 2209 
L 2766 2266 
Q 2766 2663 2505 2880 
Q 2244 3097 1772 3097 
Q 1472 3097 1187 3025 
Q 903 2953 641 2809 
L 641 3341 
Q 956 3463 1253 3523 
Q 1550 3584 1831 3584 
Q 2591 3584 2966 3190 
Q 3341 2797 3341 1997 
z
" transform="scale(0.015625)"/>
      <path id="DejaVuSans-64" d="M 2906 2969 
L 2906 4863 
L 3481 4863 
L 3481 0 
L 2906 0 
L 2906 525 
Q 2725 213 2448 61 
Q 2172 -91 1784 -91 
Q 1150 -91 751 415 
Q 353 922 353 1747 
Q 353 2572 751 3078 
Q 1150 3584 1784 3584 
Q 2172 3584 2448 3432 
Q 2725 3281 2906 2969 
z
M 947 1747 
Q 947 1113 1208 752 
Q 1469 391 1925 391 
Q 2381 391 2643 752 
Q 2906 1113 2906 1747 
Q 2906 2381 2643 2742 
Q 2381 3103 1925 3103 
Q 1469 3103 1208 2742 
Q 947 2381 947 1747 
z
" transform="scale(0.015625)"/>
      <path id="DejaVuSans-73" d="M 2834 3397 
L 2834 2853 
Q 2591 2978 2328 3040 
Q 2066 3103 1784 3103 
Q 1356 3103 1142 2972 
Q 928 2841 928 2578 
Q 928 2378 1081 2264 
Q 1234 2150 1697 2047 
L 1894 2003 
Q 2506 1872 2764 1633 
Q 3022 1394 3022 966 
Q 3022 478 2636 193 
Q 2250 -91 1575 -91 
Q 1294 -91 989 -36 
Q 684 19 347 128 
L 347 722 
Q 666 556 975 473 
Q 1284 391 1588 391 
Q 1994 391 2212 530 
Q 2431 669 2431 922 
Q 2431 1156 2273 1281 
Q 2116 1406 1581 1522 
L 1381 1569 
Q 847 1681 609 1914 
Q 372 2147 372 2553 
Q 372 3047 722 3315 
Q 1072 3584 1716 3584 
Q 2034 3584 2315 3537 
Q 2597 3491 2834 3397 
z
" transform="scale(0.015625)"/>
      <path id="DejaVuSans-66" d="M 2375 4863 
L 2375 4384 
L 1825 4384 
Q 1516 4384 1395 4259 
Q 1275 4134 1275 3809 
L 1275 3500 
L 2222 3500 
L 2222 3053 
L 1275 3053 
L 1275 0 
L 697 0 
L 697 3053 
L 147 3053 
L 147 3500 
L 697 3500 
L 697 3744 
Q 697 4328 969 4595 
Q 1241 4863 1831 4863 
L 2375 4863 
z
" transform="scale(0.015625)"/>
     </defs>
     <use xlink:href="#DejaVuSans-42"/>
     <use xlink:href="#DejaVuSans-6f" x="68.603516"/>
     <use xlink:href="#DejaVuSans-6c" x="129.785156"/>
     <use xlink:href="#DejaVuSans-6c" x="157.568359"/>
     <use xlink:href="#DejaVuSans-69" x="185.351562"/>
     <use xlink:href="#DejaVuSans-6e" x="213.134766"/>
     <use xlink:href="#DejaVuSans-67" x="276.513672"/>
     <use xlink:href="#DejaVuSans-65" x="339.990234"/>
     <use xlink:href="#DejaVuSans-72" x="401.513672"/>
     <use xlink:href="#DejaVuSans-20" x="442.626953"/>
     <use xlink:href="#DejaVuSans-42" x="474.414062"/>
     <use xlink:href="#DejaVuSans-61" x="543.017578"/>
     <use xlink:href="#DejaVuSans-6e" x="604.296875"/>
     <use xlink:href="#DejaVuSans-64" x="667.675781"/>
     <use xlink:href="#DejaVuSans-73" x="731.152344"/>
     <use xlink:href="#DejaVuSans-20" x="783.251953"/>
     <use xlink:href="#DejaVuSans-66" x="815.039062"/>
     <use xlink:href="#DejaVuSans-6f" x="850.244141"/>
     <use xlink:href="#DejaVuSans-72" x="911.425781"/>
     <use xlink:href="#DejaVuSans-20" x="952.539062"/>
     <use xlink:href="#DejaVuSans-43" x="984.326172"/>
     <use xlink:href="#DejaVuSans-41" x="1054.150391"/>
     <use xlink:href="#DejaVuSans-44" x="1122.558594"/>
     <use xlink:href="#DejaVuSans-55" x="1199.560547"/>
     <use xlink:href="#DejaVuSans-53" x="1272.753906"/>
     <use xlink:href="#DejaVuSans-44" x="1336.230469"/>
    </g>
   </g>
   <g id="legend_1">
    <g id="patch_7">
     <path d="M 184.859219 302.584 
L 287.460781 302.584 
Q 289.460781 302.584 289.460781 300.584 
L 289.460781 242.037125 
Q 289.460781 240.037125 287.460781 240.037125 
L 184.859219 240.037125 
Q 182.859219 240.037125 182.859219 242.037125 
L 182.859219 300.584 
Q 182.859219 302.584 184.859219 302.584 
z
" style="fill: #ffffff; opacity: 0.8; stroke: #cccccc; stroke-linejoin: miter"/>
    </g>
    <g id="line2d_35">
     <path d="M 186.859219 248.135562 
L 196.859219 248.135562 
L 206.859219 248.135562 
" style="fill: none; stroke: #000000; stroke-width: 1.5; stroke-linecap: square"/>
    </g>
    <g id="text_18">
     <!-- price -->
     <g transform="translate(214.859219 251.635562)scale(0.1 -0.1)">
      <defs>
       <path id="DejaVuSans-70" d="M 1159 525 
L 1159 -1331 
L 581 -1331 
L 581 3500 
L 1159 3500 
L 1159 2969 
Q 1341 3281 1617 3432 
Q 1894 3584 2278 3584 
Q 2916 3584 3314 3078 
Q 3713 2572 3713 1747 
Q 3713 922 3314 415 
Q 2916 -91 2278 -91 
Q 1894 -91 1617 61 
Q 1341 213 1159 525 
z
M 3116 1747 
Q 3116 2381 2855 2742 
Q 2594 3103 2138 3103 
Q 1681 3103 1420 2742 
Q 1159 2381 1159 1747 
Q 1159 1113 1420 752 
Q 1681 391 2138 391 
Q 2594 391 2855 752 
Q 3116 1113 3116 1747 
z
" transform="scale(0.015625)"/>
       <path id="DejaVuSans-63" d="M 3122 3366 
L 3122 2828 
Q 2878 2963 2633 3030 
Q 2388 3097 2138 3097 
Q 1578 3097 1268 2742 
Q 959 2388 959 1747 
Q 959 1106 1268 751 
Q 1578 397 2138 397 
Q 2388 397 2633 464 
Q 2878 531 3122 666 
L 3122 134 
Q 2881 22 2623 -34 
Q 2366 -91 2075 -91 
Q 1284 -91 818 406 
Q 353 903 353 1747 
Q 353 2603 823 3093 
Q 1294 3584 2113 3584 
Q 2378 3584 2631 3529 
Q 2884 3475 3122 3366 
z
" transform="scale(0.015625)"/>
      </defs>
      <use xlink:href="#DejaVuSans-70"/>
      <use xlink:href="#DejaVuSans-72" x="63.476562"/>
      <use xlink:href="#DejaVuSans-69" x="104.589844"/>
      <use xlink:href="#DejaVuSans-63" x="132.373047"/>
      <use xlink:href="#DejaVuSans-65" x="187.353516"/>
     </g>
    </g>
    <g id="line2d_36">
     <path d="M 186.859219 262.813688 
L 196.859219 262.813688 
L 206.859219 262.813688 
" style="fill: none; stroke: #008000; stroke-width: 1.5; stroke-linecap: square"/>
    </g>
    <g id="text_19">
     <!-- moving_mean -->
     <g transform="translate(214.859219 266.313688)scale(0.1 -0.1)">
      <defs>
       <path id="DejaVuSans-6d" d="M 3328 2828 
Q 3544 3216 3844 3400 
Q 4144 3584 4550 3584 
Q 5097 3584 5394 3201 
Q 5691 2819 5691 2113 
L 5691 0 
L 5113 0 
L 5113 2094 
Q 5113 2597 4934 2840 
Q 4756 3084 4391 3084 
Q 3944 3084 3684 2787 
Q 3425 2491 3425 1978 
L 3425 0 
L 2847 0 
L 2847 2094 
Q 2847 2600 2669 2842 
Q 2491 3084 2119 3084 
Q 1678 3084 1418 2786 
Q 1159 2488 1159 1978 
L 1159 0 
L 581 0 
L 581 3500 
L 1159 3500 
L 1159 2956 
Q 1356 3278 1631 3431 
Q 1906 3584 2284 3584 
Q 2666 3584 2933 3390 
Q 3200 3197 3328 2828 
z
" transform="scale(0.015625)"/>
       <path id="DejaVuSans-76" d="M 191 3500 
L 800 3500 
L 1894 563 
L 2988 3500 
L 3597 3500 
L 2284 0 
L 1503 0 
L 191 3500 
z
" transform="scale(0.015625)"/>
       <path id="DejaVuSans-5f" d="M 3263 -1063 
L 3263 -1509 
L -63 -1509 
L -63 -1063 
L 3263 -1063 
z
" transform="scale(0.015625)"/>
      </defs>
      <use xlink:href="#DejaVuSans-6d"/>
      <use xlink:href="#DejaVuSans-6f" x="97.412109"/>
      <use xlink:href="#DejaVuSans-76" x="158.59375"/>
      <use xlink:href="#DejaVuSans-69" x="217.773438"/>
      <use xlink:href="#DejaVuSans-6e" x="245.556641"/>
      <use xlink:href="#DejaVuSans-67" x="308.935547"/>
      <use xlink:href="#DejaVuSans-5f" x="372.412109"/>
      <use xlink:href="#DejaVuSans-6d" x="422.412109"/>
      <use xlink:href="#DejaVuSans-65" x="519.824219"/>
      <use xlink:href="#DejaVuSans-61" x="581.347656"/>
      <use xlink:href="#DejaVuSans-6e" x="642.626953"/>
     </g>
    </g>
    <g id="line2d_37">
     <path d="M 186.859219 277.769937 
L 196.859219 277.769937 
L 206.859219 277.769937 
" style="fill: none; stroke: #ff0000; stroke-width: 1.5; stroke-linecap: square"/>
    </g>
    <g id="text_20">
     <!-- upper_band -->
     <g transform="translate(214.859219 281.269937)scale(0.1 -0.1)">
      <defs>
       <path id="DejaVuSans-75" d="M 544 1381 
L 544 3500 
L 1119 3500 
L 1119 1403 
Q 1119 906 1312 657 
Q 1506 409 1894 409 
Q 2359 409 2629 706 
Q 2900 1003 2900 1516 
L 2900 3500 
L 3475 3500 
L 3475 0 
L 2900 0 
L 2900 538 
Q 2691 219 2414 64 
Q 2138 -91 1772 -91 
Q 1169 -91 856 284 
Q 544 659 544 1381 
z
M 1991 3584 
L 1991 3584 
z
" transform="scale(0.015625)"/>
       <path id="DejaVuSans-62" d="M 3116 1747 
Q 3116 2381 2855 2742 
Q 2594 3103 2138 3103 
Q 1681 3103 1420 2742 
Q 1159 2381 1159 1747 
Q 1159 1113 1420 752 
Q 1681 391 2138 391 
Q 2594 391 2855 752 
Q 3116 1113 3116 1747 
z
M 1159 2969 
Q 1341 3281 1617 3432 
Q 1894 3584 2278 3584 
Q 2916 3584 3314 3078 
Q 3713 2572 3713 1747 
Q 3713 922 3314 415 
Q 2916 -91 2278 -91 
Q 1894 -91 1617 61 
Q 1341 213 1159 525 
L 1159 0 
L 581 0 
L 581 4863 
L 1159 4863 
L 1159 2969 
z
" transform="scale(0.015625)"/>
      </defs>
      <use xlink:href="#DejaVuSans-75"/>
      <use xlink:href="#DejaVuSans-70" x="63.378906"/>
      <use xlink:href="#DejaVuSans-70" x="126.855469"/>
      <use xlink:href="#DejaVuSans-65" x="190.332031"/>
      <use xlink:href="#DejaVuSans-72" x="251.855469"/>
      <use xlink:href="#DejaVuSans-5f" x="292.96875"/>
      <use xlink:href="#DejaVuSans-62" x="342.96875"/>
      <use xlink:href="#DejaVuSans-61" x="406.445312"/>
      <use xlink:href="#DejaVuSans-6e" x="467.724609"/>
      <use xlink:href="#DejaVuSans-64" x="531.103516"/>
     </g>
    </g>
    <g id="line2d_38">
     <path d="M 186.859219 292.726187 
L 196.859219 292.726187 
L 206.859219 292.726187 
" style="fill: none; stroke: #0000ff; stroke-width: 1.5; stroke-linecap: square"/>
    </g>
    <g id="text_21">
     <!-- lower_band -->
     <g transform="translate(214.859219 296.226187)scale(0.1 -0.1)">
      <defs>
       <path id="DejaVuSans-77" d="M 269 3500 
L 844 3500 
L 1563 769 
L 2278 3500 
L 2956 3500 
L 3675 769 
L 4391 3500 
L 4966 3500 
L 4050 0 
L 3372 0 
L 2619 2869 
L 1863 0 
L 1184 0 
L 269 3500 
z
" transform="scale(0.015625)"/>
      </defs>
      <use xlink:href="#DejaVuSans-6c"/>
      <use xlink:href="#DejaVuSans-6f" x="27.783203"/>
      <use xlink:href="#DejaVuSans-77" x="88.964844"/>
      <use xlink:href="#DejaVuSans-65" x="170.751953"/>
      <use xlink:href="#DejaVuSans-72" x="232.275391"/>
      <use xlink:href="#DejaVuSans-5f" x="273.388672"/>
      <use xlink:href="#DejaVuSans-62" x="323.388672"/>
      <use xlink:href="#DejaVuSans-61" x="386.865234"/>
      <use xlink:href="#DejaVuSans-6e" x="448.144531"/>
      <use xlink:href="#DejaVuSans-64" x="511.523438"/>
     </g>
    </g>
   </g>
  </g>
 </g>
 <defs>
  <clipPath id="pd40b85e2d3">
   <rect x="57.6" y="41.472" width="357.12" height="266.112"/>
  </clipPath>
 </defs>
</svg>
