<?xml version="1.0" encoding="utf-8" standalone="no"?>
<!DOCTYPE svg PUBLIC "-//W3C//DTD SVG 1.1//EN"
  "http://www.w3.org/Graphics/SVG/1.1/DTD/svg11.dtd">
<svg xmlns:xlink="http://www.w3.org/1999/xlink" width="460.8pt" height="345.6pt" viewBox="0 0 460.8 345.6" xmlns="http://www.w3.org/2000/svg" version="1.1">
 <metadata>
  <rdf:RDF xmlns:dc="http://purl.org/dc/elements/1.1/" xmlns:cc="http://creativecommons.org/ns#" xmlns:rdf="http://www.w3.org/1999/02/22-rdf-syntax-ns#">
   <cc:Work>
    <dc:type rdf:resource="http://purl.org/dc/dcmitype/StillImage"/>
    <dc:date>2022-06-26T12:40:06.837914</dc:date>
    <dc:format>image/svg+xml</dc:format>
    <dc:creator>
     <cc:Agent>
      <dc:title>Matplotlib v3.5.1, https://matplotlib.org/</dc:title>
     </cc:Agent>
    </dc:creator>
   </cc:Work>
  </rdf:RDF>
 </metadata>
 <defs>
  <style type="text/css">*{stroke-linejoin: round; stroke-linecap: butt}</style>
 </defs>
 <g id="figure_1">
  <g id="patch_1">
   <path d="M 0 345.6 
L 460.8 345.6 
L 460.8 0 
L 0 0 
z
" style="fill: #ffffff"/>
  </g>
  <g id="axes_1">
   <g id="patch_2">
    <path d="M 57.6 276.48 
L 414.72 276.48 
L 414.72 41.472 
L 57.6 41.472 
z
" style="fill: #ffffff"/>
   </g>
   <g id="matplotlib.axis_1">
    <g id="xtick_1">
     <g id="line2d_1">
      <path d="M 90.35706 276.48 
L 90.35706 41.472 
" clip-path="url(#pde3fe3e965)" style="fill: none; stroke: #d3d3d3; stroke-width: 0.8; stroke-linecap: square"/>
     </g>
     <g id="line2d_2">
      <defs>
       <path id="mdcb794796c" d="M 0 0 
L 0 3.5 
" style="stroke: #000000; stroke-width: 0.8"/>
      </defs>
      <g>
       <use xlink:href="#mdcb794796c" x="90.35706" y="276.48" style="stroke: #000000; stroke-width: 0.8"/>
      </g>
     </g>
     <g id="text_1">
      <!-- 2019-01 -->
      <g transform="translate(53.13224 310.951846)rotate(-30)scale(0.1 -0.1)">
       <defs>
        <path id="DejaVuSans-32" d="M 1228 531 
L 3431 531 
L 3431 0 
L 469 0 
L 469 531 
Q 828 903 1448 1529 
Q 2069 2156 2228 2338 
Q 2531 2678 2651 2914 
Q 2772 3150 2772 3378 
Q 2772 3750 2511 3984 
Q 2250 4219 1831 4219 
Q 1534 4219 1204 4116 
Q 875 4013 500 3803 
L 500 4441 
Q 881 4594 1212 4672 
Q 1544 4750 1819 4750 
Q 2544 4750 2975 4387 
Q 3406 4025 3406 3419 
Q 3406 3131 3298 2873 
Q 3191 2616 2906 2266 
Q 2828 2175 2409 1742 
Q 1991 1309 1228 531 
z
" transform="scale(0.015625)"/>
        <path id="DejaVuSans-30" d="M 2034 4250 
Q 1547 4250 1301 3770 
Q 1056 3291 1056 2328 
Q 1056 1369 1301 889 
Q 1547 409 2034 409 
Q 2525 409 2770 889 
Q 3016 1369 3016 2328 
Q 3016 3291 2770 3770 
Q 2525 4250 2034 4250 
z
M 2034 4750 
Q 2819 4750 3233 4129 
Q 3647 3509 3647 2328 
Q 3647 1150 3233 529 
Q 2819 -91 2034 -91 
Q 1250 -91 836 529 
Q 422 1150 422 2328 
Q 422 3509 836 4129 
Q 1250 4750 2034 4750 
z
" transform="scale(0.015625)"/>
        <path id="DejaVuSans-31" d="M 794 531 
L 1825 531 
L 1825 4091 
L 703 3866 
L 703 4441 
L 1819 4666 
L 2450 4666 
L 2450 531 
L 3481 531 
L 3481 0 
L 794 0 
L 794 531 
z
" transform="scale(0.015625)"/>
        <path id="DejaVuSans-39" d="M 703 97 
L 703 672 
Q 941 559 1184 500 
Q 1428 441 1663 441 
Q 2288 441 2617 861 
Q 2947 1281 2994 2138 
Q 2813 1869 2534 1725 
Q 2256 1581 1919 1581 
Q 1219 1581 811 2004 
Q 403 2428 403 3163 
Q 403 3881 828 4315 
Q 1253 4750 1959 4750 
Q 2769 4750 3195 4129 
Q 3622 3509 3622 2328 
Q 3622 1225 3098 567 
Q 2575 -91 1691 -91 
Q 1453 -91 1209 -44 
Q 966 3 703 97 
z
M 1959 2075 
Q 2384 2075 2632 2365 
Q 2881 2656 2881 3163 
Q 2881 3666 2632 3958 
Q 2384 4250 1959 4250 
Q 1534 4250 1286 3958 
Q 1038 3666 1038 3163 
Q 1038 2656 1286 2365 
Q 1534 2075 1959 2075 
z
" transform="scale(0.015625)"/>
        <path id="DejaVuSans-2d" d="M 313 2009 
L 1997 2009 
L 1997 1497 
L 313 1497 
L 313 2009 
z
" transform="scale(0.015625)"/>
       </defs>
       <use xlink:href="#DejaVuSans-32"/>
       <use xlink:href="#DejaVuSans-30" x="63.623047"/>
       <use xlink:href="#DejaVuSans-31" x="127.246094"/>
       <use xlink:href="#DejaVuSans-39" x="190.869141"/>
       <use xlink:href="#DejaVuSans-2d" x="254.492188"/>
       <use xlink:href="#DejaVuSans-30" x="290.576172"/>
       <use xlink:href="#DejaVuSans-31" x="354.199219"/>
      </g>
     </g>
    </g>
    <g id="xtick_2">
     <g id="line2d_3">
      <path d="M 134.340947 276.48 
L 134.340947 41.472 
" clip-path="url(#pde3fe3e965)" style="fill: none; stroke: #d3d3d3; stroke-width: 0.8; stroke-linecap: square"/>
     </g>
     <g id="line2d_4">
      <g>
       <use xlink:href="#mdcb794796c" x="134.340947" y="276.48" style="stroke: #000000; stroke-width: 0.8"/>
      </g>
     </g>
     <g id="text_2">
      <!-- 2019-07 -->
      <g transform="translate(97.116126 310.951846)rotate(-30)scale(0.1 -0.1)">
       <defs>
        <path id="DejaVuSans-37" d="M 525 4666 
L 3525 4666 
L 3525 4397 
L 1831 0 
L 1172 0 
L 2766 4134 
L 525 4134 
L 525 4666 
z
" transform="scale(0.015625)"/>
       </defs>
       <use xlink:href="#DejaVuSans-32"/>
       <use xlink:href="#DejaVuSans-30" x="63.623047"/>
       <use xlink:href="#DejaVuSans-31" x="127.246094"/>
       <use xlink:href="#DejaVuSans-39" x="190.869141"/>
       <use xlink:href="#DejaVuSans-2d" x="254.492188"/>
       <use xlink:href="#DejaVuSans-30" x="290.576172"/>
       <use xlink:href="#DejaVuSans-37" x="354.199219"/>
      </g>
     </g>
    </g>
    <g id="xtick_3">
     <g id="line2d_5">
      <path d="M 179.053849 276.48 
L 179.053849 41.472 
" clip-path="url(#pde3fe3e965)" style="fill: none; stroke: #d3d3d3; stroke-width: 0.8; stroke-linecap: square"/>
     </g>
     <g id="line2d_6">
      <g>
       <use xlink:href="#mdcb794796c" x="179.053849" y="276.48" style="stroke: #000000; stroke-width: 0.8"/>
      </g>
     </g>
     <g id="text_3">
      <!-- 2020-01 -->
      <g transform="translate(141.829028 310.951846)rotate(-30)scale(0.1 -0.1)">
       <use xlink:href="#DejaVuSans-32"/>
       <use xlink:href="#DejaVuSans-30" x="63.623047"/>
       <use xlink:href="#DejaVuSans-32" x="127.246094"/>
       <use xlink:href="#DejaVuSans-30" x="190.869141"/>
       <use xlink:href="#DejaVuSans-2d" x="254.492188"/>
       <use xlink:href="#DejaVuSans-30" x="290.576172"/>
       <use xlink:href="#DejaVuSans-31" x="354.199219"/>
      </g>
     </g>
    </g>
    <g id="xtick_4">
     <g id="line2d_7">
      <path d="M 223.28074 276.48 
L 223.28074 41.472 
" clip-path="url(#pde3fe3e965)" style="fill: none; stroke: #d3d3d3; stroke-width: 0.8; stroke-linecap: square"/>
     </g>
     <g id="line2d_8">
      <g>
       <use xlink:href="#mdcb794796c" x="223.28074" y="276.48" style="stroke: #000000; stroke-width: 0.8"/>
      </g>
     </g>
     <g id="text_4">
      <!-- 2020-07 -->
      <g transform="translate(186.05592 310.951846)rotate(-30)scale(0.1 -0.1)">
       <use xlink:href="#DejaVuSans-32"/>
       <use xlink:href="#DejaVuSans-30" x="63.623047"/>
       <use xlink:href="#DejaVuSans-32" x="127.246094"/>
       <use xlink:href="#DejaVuSans-30" x="190.869141"/>
       <use xlink:href="#DejaVuSans-2d" x="254.492188"/>
       <use xlink:href="#DejaVuSans-30" x="290.576172"/>
       <use xlink:href="#DejaVuSans-37" x="354.199219"/>
      </g>
     </g>
    </g>
    <g id="xtick_5">
     <g id="line2d_9">
      <path d="M 267.993642 276.48 
L 267.993642 41.472 
" clip-path="url(#pde3fe3e965)" style="fill: none; stroke: #d3d3d3; stroke-width: 0.8; stroke-linecap: square"/>
     </g>
     <g id="line2d_10">
      <g>
       <use xlink:href="#mdcb794796c" x="267.993642" y="276.48" style="stroke: #000000; stroke-width: 0.8"/>
      </g>
     </g>
     <g id="text_5">
      <!-- 2021-01 -->
      <g transform="translate(230.768821 310.951846)rotate(-30)scale(0.1 -0.1)">
       <use xlink:href="#DejaVuSans-32"/>
       <use xlink:href="#DejaVuSans-30" x="63.623047"/>
       <use xlink:href="#DejaVuSans-32" x="127.246094"/>
       <use xlink:href="#DejaVuSans-31" x="190.869141"/>
       <use xlink:href="#DejaVuSans-2d" x="254.492188"/>
       <use xlink:href="#DejaVuSans-30" x="290.576172"/>
       <use xlink:href="#DejaVuSans-31" x="354.199219"/>
      </g>
     </g>
    </g>
    <g id="xtick_6">
     <g id="line2d_11">
      <path d="M 311.977529 276.48 
L 311.977529 41.472 
" clip-path="url(#pde3fe3e965)" style="fill: none; stroke: #d3d3d3; stroke-width: 0.8; stroke-linecap: square"/>
     </g>
     <g id="line2d_12">
      <g>
       <use xlink:href="#mdcb794796c" x="311.977529" y="276.48" style="stroke: #000000; stroke-width: 0.8"/>
      </g>
     </g>
     <g id="text_6">
      <!-- 2021-07 -->
      <g transform="translate(274.752708 310.951846)rotate(-30)scale(0.1 -0.1)">
       <use xlink:href="#DejaVuSans-32"/>
       <use xlink:href="#DejaVuSans-30" x="63.623047"/>
       <use xlink:href="#DejaVuSans-32" x="127.246094"/>
       <use xlink:href="#DejaVuSans-31" x="190.869141"/>
       <use xlink:href="#DejaVuSans-2d" x="254.492188"/>
       <use xlink:href="#DejaVuSans-30" x="290.576172"/>
       <use xlink:href="#DejaVuSans-37" x="354.199219"/>
      </g>
     </g>
    </g>
    <g id="xtick_7">
     <g id="line2d_13">
      <path d="M 356.69043 276.48 
L 356.69043 41.472 
" clip-path="url(#pde3fe3e965)" style="fill: none; stroke: #d3d3d3; stroke-width: 0.8; stroke-linecap: square"/>
     </g>
     <g id="line2d_14">
      <g>
       <use xlink:href="#mdcb794796c" x="356.69043" y="276.48" style="stroke: #000000; stroke-width: 0.8"/>
      </g>
     </g>
     <g id="text_7">
      <!-- 2022-01 -->
      <g transform="translate(319.465609 310.951846)rotate(-30)scale(0.1 -0.1)">
       <use xlink:href="#DejaVuSans-32"/>
       <use xlink:href="#DejaVuSans-30" x="63.623047"/>
       <use xlink:href="#DejaVuSans-32" x="127.246094"/>
       <use xlink:href="#DejaVuSans-32" x="190.869141"/>
       <use xlink:href="#DejaVuSans-2d" x="254.492188"/>
       <use xlink:href="#DejaVuSans-30" x="290.576172"/>
       <use xlink:href="#DejaVuSans-31" x="354.199219"/>
      </g>
     </g>
    </g>
    <g id="xtick_8">
     <g id="line2d_15">
      <path d="M 400.674317 276.48 
L 400.674317 41.472 
" clip-path="url(#pde3fe3e965)" style="fill: none; stroke: #d3d3d3; stroke-width: 0.8; stroke-linecap: square"/>
     </g>
     <g id="line2d_16">
      <g>
       <use xlink:href="#mdcb794796c" x="400.674317" y="276.48" style="stroke: #000000; stroke-width: 0.8"/>
      </g>
     </g>
     <g id="text_8">
      <!-- 2022-07 -->
      <g transform="translate(363.449496 310.951846)rotate(-30)scale(0.1 -0.1)">
       <use xlink:href="#DejaVuSans-32"/>
       <use xlink:href="#DejaVuSans-30" x="63.623047"/>
       <use xlink:href="#DejaVuSans-32" x="127.246094"/>
       <use xlink:href="#DejaVuSans-32" x="190.869141"/>
       <use xlink:href="#DejaVuSans-2d" x="254.492188"/>
       <use xlink:href="#DejaVuSans-30" x="290.576172"/>
       <use xlink:href="#DejaVuSans-37" x="354.199219"/>
      </g>
     </g>
    </g>
    <g id="text_9">
     <!-- Date -->
     <g transform="translate(224.209219 324.351346)scale(0.1 -0.1)">
      <defs>
       <path id="DejaVuSans-44" d="M 1259 4147 
L 1259 519 
L 2022 519 
Q 2988 519 3436 956 
Q 3884 1394 3884 2338 
Q 3884 3275 3436 3711 
Q 2988 4147 2022 4147 
L 1259 4147 
z
M 628 4666 
L 1925 4666 
Q 3281 4666 3915 4102 
Q 4550 3538 4550 2338 
Q 4550 1131 3912 565 
Q 3275 0 1925 0 
L 628 0 
L 628 4666 
z
" transform="scale(0.015625)"/>
       <path id="DejaVuSans-61" d="M 2194 1759 
Q 1497 1759 1228 1600 
Q 959 1441 959 1056 
Q 959 750 1161 570 
Q 1363 391 1709 391 
Q 2188 391 2477 730 
Q 2766 1069 2766 1631 
L 2766 1759 
L 2194 1759 
z
M 3341 1997 
L 3341 0 
L 2766 0 
L 2766 531 
Q 2569 213 2275 61 
Q 1981 -91 1556 -91 
Q 1019 -91 701 211 
Q 384 513 384 1019 
Q 384 1609 779 1909 
Q 1175 2209 1959 2209 
L 2766 2209 
L 2766 2266 
Q 2766 2663 2505 2880 
Q 2244 3097 1772 3097 
Q 1472 3097 1187 3025 
Q 903 2953 641 2809 
L 641 3341 
Q 956 3463 1253 3523 
Q 1550 3584 1831 3584 
Q 2591 3584 2966 3190 
Q 3341 2797 3341 1997 
z
" transform="scale(0.015625)"/>
       <path id="DejaVuSans-74" d="M 1172 4494 
L 1172 3500 
L 2356 3500 
L 2356 3053 
L 1172 3053 
L 1172 1153 
Q 1172 725 1289 603 
Q 1406 481 1766 481 
L 2356 481 
L 2356 0 
L 1766 0 
Q 1100 0 847 248 
Q 594 497 594 1153 
L 594 3053 
L 172 3053 
L 172 3500 
L 594 3500 
L 594 4494 
L 1172 4494 
z
" transform="scale(0.015625)"/>
       <path id="DejaVuSans-65" d="M 3597 1894 
L 3597 1613 
L 953 1613 
Q 991 1019 1311 708 
Q 1631 397 2203 397 
Q 2534 397 2845 478 
Q 3156 559 3463 722 
L 3463 178 
Q 3153 47 2828 -22 
Q 2503 -91 2169 -91 
Q 1331 -91 842 396 
Q 353 884 353 1716 
Q 353 2575 817 3079 
Q 1281 3584 2069 3584 
Q 2775 3584 3186 3129 
Q 3597 2675 3597 1894 
z
M 3022 2063 
Q 3016 2534 2758 2815 
Q 2500 3097 2075 3097 
Q 1594 3097 1305 2825 
Q 1016 2553 972 2059 
L 3022 2063 
z
" transform="scale(0.015625)"/>
      </defs>
      <use xlink:href="#DejaVuSans-44"/>
      <use xlink:href="#DejaVuSans-61" x="77.001953"/>
      <use xlink:href="#DejaVuSans-74" x="138.28125"/>
      <use xlink:href="#DejaVuSans-65" x="177.490234"/>
     </g>
    </g>
   </g>
   <g id="matplotlib.axis_2">
    <g id="ytick_1">
     <g id="line2d_17">
      <path d="M 57.6 261.708312 
L 414.72 261.708312 
" clip-path="url(#pde3fe3e965)" style="fill: none; stroke: #d3d3d3; stroke-width: 0.8; stroke-linecap: square"/>
     </g>
     <g id="line2d_18">
      <defs>
       <path id="m01ff0de60b" d="M 0 0 
L -3.5 0 
" style="stroke: #000000; stroke-width: 0.8"/>
      </defs>
      <g>
       <use xlink:href="#m01ff0de60b" x="57.6" y="261.708312" style="stroke: #000000; stroke-width: 0.8"/>
      </g>
     </g>
     <g id="text_10">
      <!-- −0.6 -->
      <g transform="translate(26.317187 265.50753)scale(0.1 -0.1)">
       <defs>
        <path id="DejaVuSans-2212" d="M 678 2272 
L 4684 2272 
L 4684 1741 
L 678 1741 
L 678 2272 
z
" transform="scale(0.015625)"/>
        <path id="DejaVuSans-2e" d="M 684 794 
L 1344 794 
L 1344 0 
L 684 0 
L 684 794 
z
" transform="scale(0.015625)"/>
        <path id="DejaVuSans-36" d="M 2113 2584 
Q 1688 2584 1439 2293 
Q 1191 2003 1191 1497 
Q 1191 994 1439 701 
Q 1688 409 2113 409 
Q 2538 409 2786 701 
Q 3034 994 3034 1497 
Q 3034 2003 2786 2293 
Q 2538 2584 2113 2584 
z
M 3366 4563 
L 3366 3988 
Q 3128 4100 2886 4159 
Q 2644 4219 2406 4219 
Q 1781 4219 1451 3797 
Q 1122 3375 1075 2522 
Q 1259 2794 1537 2939 
Q 1816 3084 2150 3084 
Q 2853 3084 3261 2657 
Q 3669 2231 3669 1497 
Q 3669 778 3244 343 
Q 2819 -91 2113 -91 
Q 1303 -91 875 529 
Q 447 1150 447 2328 
Q 447 3434 972 4092 
Q 1497 4750 2381 4750 
Q 2619 4750 2861 4703 
Q 3103 4656 3366 4563 
z
" transform="scale(0.015625)"/>
       </defs>
       <use xlink:href="#DejaVuSans-2212"/>
       <use xlink:href="#DejaVuSans-30" x="83.789062"/>
       <use xlink:href="#DejaVuSans-2e" x="147.412109"/>
       <use xlink:href="#DejaVuSans-36" x="179.199219"/>
      </g>
     </g>
    </g>
    <g id="ytick_2">
     <g id="line2d_19">
      <path d="M 57.6 233.24538 
L 414.72 233.24538 
" clip-path="url(#pde3fe3e965)" style="fill: none; stroke: #d3d3d3; stroke-width: 0.8; stroke-linecap: square"/>
     </g>
     <g id="line2d_20">
      <g>
       <use xlink:href="#m01ff0de60b" x="57.6" y="233.24538" style="stroke: #000000; stroke-width: 0.8"/>
      </g>
     </g>
     <g id="text_11">
      <!-- −0.4 -->
      <g transform="translate(26.317187 237.044598)scale(0.1 -0.1)">
       <defs>
        <path id="DejaVuSans-34" d="M 2419 4116 
L 825 1625 
L 2419 1625 
L 2419 4116 
z
M 2253 4666 
L 3047 4666 
L 3047 1625 
L 3713 1625 
L 3713 1100 
L 3047 1100 
L 3047 0 
L 2419 0 
L 2419 1100 
L 313 1100 
L 313 1709 
L 2253 4666 
z
" transform="scale(0.015625)"/>
       </defs>
       <use xlink:href="#DejaVuSans-2212"/>
       <use xlink:href="#DejaVuSans-30" x="83.789062"/>
       <use xlink:href="#DejaVuSans-2e" x="147.412109"/>
       <use xlink:href="#DejaVuSans-34" x="179.199219"/>
      </g>
     </g>
    </g>
    <g id="ytick_3">
     <g id="line2d_21">
      <path d="M 57.6 204.782448 
L 414.72 204.782448 
" clip-path="url(#pde3fe3e965)" style="fill: none; stroke: #d3d3d3; stroke-width: 0.8; stroke-linecap: square"/>
     </g>
     <g id="line2d_22">
      <g>
       <use xlink:href="#m01ff0de60b" x="57.6" y="204.782448" style="stroke: #000000; stroke-width: 0.8"/>
      </g>
     </g>
     <g id="text_12">
      <!-- −0.2 -->
      <g transform="translate(26.317187 208.581666)scale(0.1 -0.1)">
       <use xlink:href="#DejaVuSans-2212"/>
       <use xlink:href="#DejaVuSans-30" x="83.789062"/>
       <use xlink:href="#DejaVuSans-2e" x="147.412109"/>
       <use xlink:href="#DejaVuSans-32" x="179.199219"/>
      </g>
     </g>
    </g>
    <g id="ytick_4">
     <g id="line2d_23">
      <path d="M 57.6 176.319515 
L 414.72 176.319515 
" clip-path="url(#pde3fe3e965)" style="fill: none; stroke: #d3d3d3; stroke-width: 0.8; stroke-linecap: square"/>
     </g>
     <g id="line2d_24">
      <g>
       <use xlink:href="#m01ff0de60b" x="57.6" y="176.319515" style="stroke: #000000; stroke-width: 0.8"/>
      </g>
     </g>
     <g id="text_13">
      <!-- 0.0 -->
      <g transform="translate(34.696875 180.118734)scale(0.1 -0.1)">
       <use xlink:href="#DejaVuSans-30"/>
       <use xlink:href="#DejaVuSans-2e" x="63.623047"/>
       <use xlink:href="#DejaVuSans-30" x="95.410156"/>
      </g>
     </g>
    </g>
    <g id="ytick_5">
     <g id="line2d_25">
      <path d="M 57.6 147.856583 
L 414.72 147.856583 
" clip-path="url(#pde3fe3e965)" style="fill: none; stroke: #d3d3d3; stroke-width: 0.8; stroke-linecap: square"/>
     </g>
     <g id="line2d_26">
      <g>
       <use xlink:href="#m01ff0de60b" x="57.6" y="147.856583" style="stroke: #000000; stroke-width: 0.8"/>
      </g>
     </g>
     <g id="text_14">
      <!-- 0.2 -->
      <g transform="translate(34.696875 151.655802)scale(0.1 -0.1)">
       <use xlink:href="#DejaVuSans-30"/>
       <use xlink:href="#DejaVuSans-2e" x="63.623047"/>
       <use xlink:href="#DejaVuSans-32" x="95.410156"/>
      </g>
     </g>
    </g>
    <g id="ytick_6">
     <g id="line2d_27">
      <path d="M 57.6 119.393651 
L 414.72 119.393651 
" clip-path="url(#pde3fe3e965)" style="fill: none; stroke: #d3d3d3; stroke-width: 0.8; stroke-linecap: square"/>
     </g>
     <g id="line2d_28">
      <g>
       <use xlink:href="#m01ff0de60b" x="57.6" y="119.393651" style="stroke: #000000; stroke-width: 0.8"/>
      </g>
     </g>
     <g id="text_15">
      <!-- 0.4 -->
      <g transform="translate(34.696875 123.19287)scale(0.1 -0.1)">
       <use xlink:href="#DejaVuSans-30"/>
       <use xlink:href="#DejaVuSans-2e" x="63.623047"/>
       <use xlink:href="#DejaVuSans-34" x="95.410156"/>
      </g>
     </g>
    </g>
    <g id="ytick_7">
     <g id="line2d_29">
      <path d="M 57.6 90.930719 
L 414.72 90.930719 
" clip-path="url(#pde3fe3e965)" style="fill: none; stroke: #d3d3d3; stroke-width: 0.8; stroke-linecap: square"/>
     </g>
     <g id="line2d_30">
      <g>
       <use xlink:href="#m01ff0de60b" x="57.6" y="90.930719" style="stroke: #000000; stroke-width: 0.8"/>
      </g>
     </g>
     <g id="text_16">
      <!-- 0.6 -->
      <g transform="translate(34.696875 94.729938)scale(0.1 -0.1)">
       <use xlink:href="#DejaVuSans-30"/>
       <use xlink:href="#DejaVuSans-2e" x="63.623047"/>
       <use xlink:href="#DejaVuSans-36" x="95.410156"/>
      </g>
     </g>
    </g>
    <g id="ytick_8">
     <g id="line2d_31">
      <path d="M 57.6 62.467787 
L 414.72 62.467787 
" clip-path="url(#pde3fe3e965)" style="fill: none; stroke: #d3d3d3; stroke-width: 0.8; stroke-linecap: square"/>
     </g>
     <g id="line2d_32">
      <g>
       <use xlink:href="#m01ff0de60b" x="57.6" y="62.467787" style="stroke: #000000; stroke-width: 0.8"/>
      </g>
     </g>
     <g id="text_17">
      <!-- 0.8 -->
      <g transform="translate(34.696875 66.267006)scale(0.1 -0.1)">
       <defs>
        <path id="DejaVuSans-38" d="M 2034 2216 
Q 1584 2216 1326 1975 
Q 1069 1734 1069 1313 
Q 1069 891 1326 650 
Q 1584 409 2034 409 
Q 2484 409 2743 651 
Q 3003 894 3003 1313 
Q 3003 1734 2745 1975 
Q 2488 2216 2034 2216 
z
M 1403 2484 
Q 997 2584 770 2862 
Q 544 3141 544 3541 
Q 544 4100 942 4425 
Q 1341 4750 2034 4750 
Q 2731 4750 3128 4425 
Q 3525 4100 3525 3541 
Q 3525 3141 3298 2862 
Q 3072 2584 2669 2484 
Q 3125 2378 3379 2068 
Q 3634 1759 3634 1313 
Q 3634 634 3220 271 
Q 2806 -91 2034 -91 
Q 1263 -91 848 271 
Q 434 634 434 1313 
Q 434 1759 690 2068 
Q 947 2378 1403 2484 
z
M 1172 3481 
Q 1172 3119 1398 2916 
Q 1625 2713 2034 2713 
Q 2441 2713 2670 2916 
Q 2900 3119 2900 3481 
Q 2900 3844 2670 4047 
Q 2441 4250 2034 4250 
Q 1625 4250 1398 4047 
Q 1172 3844 1172 3481 
z
" transform="scale(0.015625)"/>
       </defs>
       <use xlink:href="#DejaVuSans-30"/>
       <use xlink:href="#DejaVuSans-2e" x="63.623047"/>
       <use xlink:href="#DejaVuSans-38" x="95.410156"/>
      </g>
     </g>
    </g>
   </g>
   <g id="line2d_33">
    <path d="M 73.832727 213.860647 
L 75.047752 217.825824 
L 75.290757 218.876789 
L 75.533762 221.078488 
L 76.505781 219.189457 
L 78.206815 211.958836 
L 78.44982 204.262656 
L 79.178835 193.360183 
L 79.90785 192.083628 
L 80.150855 190.918762 
L 80.39386 187.337482 
L 80.636864 185.397761 
L 81.851889 180.412999 
L 82.094894 178.929693 
L 82.580904 178.499476 
L 83.309918 178.106816 
L 83.552923 177.428619 
L 84.281938 170.440763 
L 85.010953 167.787126 
L 85.982972 160.012893 
L 86.711987 152.731372 
L 87.441002 127.880025 
L 87.684007 118.538095 
L 88.413021 107.662747 
L 88.899031 88.498687 
L 89.385041 81.423368 
L 90.114056 79.671999 
L 90.600065 76.485479 
L 90.84307 76.583779 
L 91.086075 75.760653 
L 91.81509 75.644463 
L 92.058095 75.109303 
L 92.3011 75.117156 
L 92.544105 74.792693 
L 92.787109 73.842189 
L 93.516124 72.768018 
L 93.759129 71.966757 
L 94.245139 71.737691 
L 94.488144 72.982891 
L 95.217158 73.672733 
L 95.460163 74.572684 
L 95.703168 75.034317 
L 96.189178 75.341104 
L 96.918193 75.541638 
L 97.647207 77.223981 
L 97.890212 77.885288 
L 98.619227 78.861269 
L 99.105237 81.406257 
L 99.591247 84.056893 
L 100.563266 86.362602 
L 100.806271 87.605999 
L 101.049276 87.616101 
L 101.292281 88.376205 
L 102.021296 88.919725 
L 102.2643 89.685295 
L 102.75031 92.500522 
L 102.993315 92.761553 
L 103.72233 94.026563 
L 104.20834 97.341716 
L 104.451345 97.146891 
L 104.694349 97.724345 
L 105.423364 98.348165 
L 105.909374 100.457878 
L 106.152379 100.407003 
L 107.124398 101.596056 
L 107.367403 103.904617 
L 107.853413 111.810857 
L 108.096418 117.073064 
L 109.068438 122.92025 
L 109.797452 133.599228 
L 110.526467 134.187523 
L 110.769472 135.58096 
L 111.012477 136.269622 
L 111.255482 138.20751 
L 111.498487 141.414261 
L 111.984496 144.079758 
L 112.713511 156.982964 
L 112.956516 164.482905 
L 113.685531 172.947041 
L 114.171541 184.205707 
L 114.414545 187.907824 
L 114.65755 189.316552 
L 115.386565 188.335904 
L 115.872575 183.497288 
L 116.11558 183.152791 
L 116.358585 185.434492 
L 117.330604 188.645581 
L 117.573609 188.292262 
L 117.816614 189.756822 
L 118.059619 192.244467 
L 118.788634 193.445536 
L 119.274643 193.740038 
L 119.517648 194.517014 
L 119.760653 195.761813 
L 120.489668 197.352579 
L 120.732673 198.419619 
L 120.975678 201.600804 
L 121.218683 211.238178 
L 121.461688 216.170744 
L 122.433707 217.817902 
L 122.676712 217.747789 
L 122.919717 218.443484 
L 123.162722 218.501427 
L 123.891737 219.170542 
L 124.134741 220.277049 
L 124.377746 220.795034 
L 124.620751 221.707227 
L 124.863756 222.145007 
L 125.592771 223.114351 
L 126.078781 225.396537 
L 126.56479 230.445802 
L 127.53681 233.010874 
L 127.779815 233.866874 
L 128.02282 233.056824 
L 128.265825 233.083618 
L 129.237844 232.804724 
L 129.480849 233.492928 
L 129.966859 233.61015 
L 130.695874 234.567647 
L 131.181884 234.630677 
L 131.667893 232.31493 
L 132.396908 231.950928 
L 132.639913 231.288719 
L 133.368928 226.052338 
L 134.097942 224.505335 
L 134.826957 216.830323 
L 135.069962 214.453889 
L 135.798977 211.941076 
L 136.770996 200.818128 
L 137.500011 198.443096 
L 137.986021 189.275803 
L 138.47203 173.377237 
L 139.201045 164.991572 
L 139.687055 147.404896 
L 140.173065 123.834072 
L 140.902079 115.331601 
L 141.388089 96.831733 
L 141.874099 86.560036 
L 142.603114 80.987803 
L 143.089124 70.307119 
L 143.332128 68.369287 
L 143.575133 68.800066 
L 144.304148 69.254371 
L 144.790158 70.597353 
L 145.033163 72.127362 
L 145.276168 75.044262 
L 146.005182 78.82211 
L 146.248187 81.839377 
L 146.977202 101.975933 
L 147.706217 109.178973 
L 148.678236 148.053734 
L 149.407251 158.410645 
L 150.379271 192.140714 
L 151.108285 196.377005 
L 152.080305 213.801611 
L 152.80932 216.704386 
L 153.052324 218.983323 
L 153.538334 220.419802 
L 153.781339 221.486923 
L 154.510354 224.172695 
L 155.482373 236.913502 
L 156.211388 239.25093 
L 157.183408 249.091972 
L 157.912422 250.694408 
L 158.398432 253.574132 
L 158.884442 254.703713 
L 159.856462 253.633993 
L 160.099467 253.829531 
L 160.342471 252.649617 
L 160.585476 250.835867 
L 161.314491 249.460933 
L 162.043506 244.318344 
L 162.286511 242.867954 
L 163.25853 241.26376 
L 163.74454 234.418159 
L 164.23055 226.611238 
L 164.959565 222.314089 
L 165.931584 205.392657 
L 166.660599 202.056218 
L 167.632618 189.670216 
L 168.361633 187.013566 
L 169.333653 175.140764 
L 170.062667 171.813501 
L 170.548677 166.769519 
L 171.034687 161.810167 
L 171.763702 159.391339 
L 172.249711 152.436099 
L 172.492716 152.593294 
L 172.735721 156.358886 
L 173.464736 160.618599 
L 174.193751 172.646587 
L 174.436756 180.204908 
L 175.16577 187.593298 
L 175.894785 207.911162 
L 176.13779 213.768012 
L 176.866805 217.56289 
L 177.838824 231.974554 
L 178.567839 238.649377 
L 179.296854 248.769331 
L 179.539858 250.097309 
L 180.268873 251.034104 
L 180.511878 254.103217 
L 180.997888 256.384427 
L 181.240893 257.587711 
L 181.969907 259.497954 
L 182.455917 261.807338 
L 182.698922 262.469949 
L 182.941927 263.721667 
L 183.913947 264.667695 
L 184.399956 265.797818 
L 184.642961 265.173387 
L 185.371976 262.066101 
L 186.343996 250.130246 
L 187.07301 247.264122 
L 187.55902 241.380714 
L 188.04503 238.351004 
L 188.774045 235.921205 
L 189.503059 226.920811 
L 189.746064 221.176494 
L 190.475079 215.711547 
L 190.961089 206.041103 
L 191.204094 204.672634 
L 192.419118 206.292043 
L 192.662123 205.780454 
L 193.148133 205.210222 
L 193.877148 203.587138 
L 194.363157 206.780176 
L 194.606162 210.242601 
L 194.849167 209.838965 
L 195.578182 209.2666 
L 195.821187 206.798023 
L 196.064192 206.258398 
L 196.307197 201.500166 
L 196.550201 192.649443 
L 197.279216 187.092122 
L 198.251236 144.031348 
L 198.98025 137.721259 
L 199.46626 132.395039 
L 199.709265 132.984177 
L 199.95227 132.851834 
L 200.43828 129.167436 
L 201.410299 116.991501 
L 202.625324 112.220237 
L 202.868329 112.753979 
L 203.111334 114.412465 
L 203.840348 116.063326 
L 204.326358 127.637304 
L 204.569363 133.854582 
L 204.812368 143.872287 
L 205.541383 150.519202 
L 206.027392 161.665863 
L 206.513402 178.968102 
L 207.242417 186.468304 
L 207.971432 209.544713 
L 208.214437 212.405931 
L 208.943451 215.822255 
L 209.429461 224.157257 
L 209.915471 233.711962 
L 210.644486 236.70957 
L 211.3735 243.579852 
L 211.616505 245.93337 
L 212.34552 248.83456 
L 213.074535 252.853024 
L 213.317539 253.731958 
L 214.046554 254.896061 
L 214.289559 256.458858 
L 214.532564 256.591373 
L 214.775569 255.728282 
L 215.018574 253.50896 
L 215.747588 249.741602 
L 215.990593 245.404257 
L 216.719608 216.388216 
L 217.448623 207.960182 
L 217.934633 198.060306 
L 218.420642 192.342536 
L 219.149657 190.55636 
L 219.635667 185.582133 
L 220.121677 183.264385 
L 220.850691 182.64903 
L 221.822711 176.547273 
L 222.551726 174.712451 
L 223.28074 168.842406 
L 223.523745 167.229396 
L 224.25276 166.44942 
L 224.495765 164.720919 
L 225.22478 162.992049 
L 225.953794 163.044176 
L 226.196799 163.185593 
L 226.439804 161.760826 
L 226.682809 161.696403 
L 226.925814 162.595507 
L 227.654829 161.272694 
L 227.897833 160.570802 
L 228.140838 159.378958 
L 228.383843 157.326179 
L 228.626848 156.243192 
L 229.355863 156.330208 
L 229.598868 154.320155 
L 229.841873 150.863758 
L 230.327882 138.592462 
L 231.056897 134.144959 
L 231.785912 126.410004 
L 232.028917 124.992383 
L 232.757931 122.646132 
L 233.000936 119.631151 
L 233.729951 104.45513 
L 234.701971 96.955523 
L 235.18798 93.696001 
L 235.430985 92.651594 
L 236.403005 92.1251 
L 237.13202 89.888389 
L 237.861034 89.319896 
L 238.347044 85.35167 
L 238.590049 85.16231 
L 238.833054 85.509808 
L 239.805073 86.312745 
L 240.048078 86.665554 
L 240.291083 86.599592 
L 240.534088 85.75394 
L 241.263103 85.792599 
L 241.506108 85.693942 
L 241.749113 86.211171 
L 242.235122 80.556029 
L 242.964137 74.926173 
L 243.207142 71.281899 
L 243.693152 68.58655 
L 243.936157 67.093355 
L 244.665171 65.14762 
L 245.151181 60.560741 
L 245.637191 58.997392 
L 246.366206 57.686593 
L 246.609211 54.718391 
L 246.852216 53.455688 
L 248.310245 52.154182 
L 249.768274 53.596435 
L 250.011279 54.533805 
L 250.497289 56.839822 
L 250.740294 57.733865 
L 251.712314 58.378392 
L 251.955318 59.288973 
L 252.198323 59.545974 
L 252.441328 58.803664 
L 252.684333 57.00829 
L 253.413348 55.485688 
L 253.656353 54.565072 
L 254.142363 53.925685 
L 254.385367 54.273636 
L 255.114382 54.541629 
L 255.600392 58.202137 
L 256.086402 65.021045 
L 256.815416 67.741882 
L 257.058421 70.129433 
L 257.544431 71.518168 
L 257.787436 72.08309 
L 258.516451 72.534032 
L 259.002461 76.326901 
L 259.48847 81.177609 
L 260.217485 84.241026 
L 260.46049 87.325497 
L 261.189505 111.115856 
L 261.918519 116.364314 
L 262.890539 132.514909 
L 263.619554 134.685738 
L 264.348568 141.654061 
L 264.591573 145.739911 
L 265.320588 150.015579 
L 265.806598 156.41302 
L 266.292608 162.251516 
L 267.021622 163.245672 
L 267.264627 164.980299 
L 267.507632 169.83471 
L 267.750637 172.315493 
L 267.993642 177.430435 
L 268.722657 179.695305 
L 269.208666 188.069265 
L 269.694676 190.852028 
L 270.423691 192.010827 
L 270.666696 192.86021 
L 270.909701 191.673428 
L 271.152705 191.935783 
L 271.39571 192.868037 
L 272.124725 194.421361 
L 272.36773 195.486472 
L 273.096745 189.985284 
L 273.825759 187.878642 
L 274.797779 175.987381 
L 275.526794 175.036787 
L 275.769799 172.546342 
L 276.012803 172.420713 
L 276.498813 170.273169 
L 277.470833 167.268775 
L 278.199848 159.41317 
L 278.928862 155.728279 
L 279.900882 134.757738 
L 280.629897 129.991318 
L 281.115906 123.756443 
L 281.358911 122.060388 
L 281.601916 121.839504 
L 282.330931 122.200909 
L 282.573936 121.860405 
L 282.816941 120.737585 
L 283.059946 120.259848 
L 283.30295 118.82902 
L 284.031965 117.35871 
L 284.27497 115.400214 
L 284.76098 106.163774 
L 285.003985 98.660474 
L 285.976004 90.431773 
L 286.219009 88.868273 
L 286.462014 89.274279 
L 286.705019 88.207603 
L 287.434034 87.241527 
L 287.677039 85.753428 
L 287.920044 85.873864 
L 288.163048 86.888059 
L 288.406053 88.403019 
L 288.892063 88.747313 
L 289.135068 89.597341 
L 289.378073 89.686882 
L 289.621078 90.118751 
L 289.864083 91.314264 
L 290.593097 92.298776 
L 290.836102 93.999266 
L 291.079107 92.673379 
L 291.322112 90.29555 
L 291.565117 89.454871 
L 292.294132 88.95803 
L 292.780142 87.986482 
L 293.023146 88.288251 
L 293.995166 88.436054 
L 294.238171 88.848772 
L 294.967186 92.01853 
L 295.6962 93.200824 
L 296.18221 95.089527 
L 296.66822 103.294097 
L 297.397235 104.729177 
L 297.883244 107.60272 
L 298.369254 112.781777 
L 299.098269 114.373912 
L 299.584279 117.173693 
L 299.827284 118.109036 
L 300.070289 120.341859 
L 301.285313 126.496499 
L 301.528318 126.392127 
L 301.771323 125.348216 
L 302.500338 123.638645 
L 302.743342 122.680288 
L 302.986347 122.45515 
L 303.229352 127.510477 
L 303.472357 135.595564 
L 304.201372 142.877371 
L 304.687382 155.467356 
L 305.173391 164.422487 
L 305.902406 169.433084 
L 306.145411 174.507296 
L 306.874426 200.91447 
L 307.60344 206.872113 
L 308.332455 223.083393 
L 308.57546 227.390484 
L 309.304475 229.536704 
L 310.033489 233.078764 
L 310.276494 235.527584 
L 311.248514 236.80488 
L 311.491519 238.100482 
L 312.949548 259.39749 
L 313.192553 259.95256 
L 313.435558 259.993494 
L 313.678563 259.116831 
L 314.407578 259.73324 
L 314.650582 261.324673 
L 314.893587 261.604902 
L 315.136592 257.381427 
L 315.379597 248.026848 
L 316.108612 238.423757 
L 316.594622 223.837675 
L 317.080631 210.956052 
L 317.809646 205.425335 
L 318.295656 190.799348 
L 318.781666 173.40786 
L 319.51068 164.845051 
L 320.4827 132.842191 
L 321.211715 127.038932 
L 322.183734 106.373328 
L 322.912749 102.052658 
L 323.398759 90.493364 
L 323.884769 82.29022 
L 324.613783 77.591501 
L 325.099793 71.007464 
L 325.585803 65.952406 
L 326.314818 64.360586 
L 326.557823 63.019868 
L 326.800827 63.279658 
L 327.043832 63.905863 
L 327.286837 65.041654 
L 328.258857 65.605403 
L 328.744867 66.419729 
L 328.987872 66.2028 
L 329.716886 66.586085 
L 329.959891 66.963762 
L 330.445901 67.209145 
L 330.688906 66.974545 
L 331.417921 66.828579 
L 332.146935 65.705729 
L 332.38994 66.472108 
L 333.118955 67.228834 
L 333.36196 67.779461 
L 333.604965 68.612384 
L 333.84797 68.192285 
L 334.090974 66.991557 
L 334.819989 65.871295 
L 335.062994 64.53302 
L 335.305999 64.013076 
L 335.792009 64.58444 
L 336.521023 65.05275 
L 336.764028 65.561066 
L 337.250038 67.478365 
L 337.493043 69.94621 
L 338.222058 75.159074 
L 338.708068 90.990626 
L 339.194077 104.480863 
L 339.923092 107.110795 
L 340.409102 115.049257 
L 340.895112 125.501436 
L 341.867131 130.397979 
L 342.596146 145.334561 
L 342.839151 151.281685 
L 343.568165 156.147077 
L 343.81117 161.347468 
L 344.29718 165.275393 
L 344.540185 165.0635 
L 345.2692 167.03992 
L 345.512205 169.064179 
L 345.75521 168.876955 
L 346.241219 165.899628 
L 346.970234 162.720463 
L 347.456244 156.598865 
L 347.699249 156.580992 
L 347.942254 155.816003 
L 348.671268 156.476475 
L 348.914273 157.216273 
L 349.157278 156.253964 
L 349.400283 155.991695 
L 349.643288 154.735706 
L 350.372303 153.205865 
L 350.615308 153.042166 
L 351.344322 159.054178 
L 352.073337 161.952357 
L 352.559347 169.172963 
L 353.045357 173.285085 
L 353.774371 177.738335 
L 354.017376 181.538553 
L 354.260381 182.876608 
L 354.503386 182.657346 
L 354.746391 182.20778 
L 355.475406 182.93525 
L 355.71841 182.279919 
L 355.961415 182.228402 
L 356.20442 180.785276 
L 356.447425 180.216008 
L 357.419445 177.503572 
L 358.148459 170.453058 
L 358.877474 168.323918 
L 359.120479 167.197272 
L 359.606489 162.787676 
L 359.849494 162.099578 
L 360.578508 161.830136 
L 360.821513 161.109853 
L 361.064518 162.415784 
L 361.307523 164.545871 
L 361.550528 169.000545 
L 362.279543 173.219159 
L 362.522548 177.978182 
L 363.008557 190.432899 
L 363.251562 194.430799 
L 363.980577 197.416079 
L 364.223582 199.218973 
L 364.466587 200.051901 
L 364.709592 201.450578 
L 364.952597 198.802342 
L 365.681611 195.994293 
L 366.167621 189.874791 
L 366.653631 181.823284 
L 367.625651 179.089161 
L 368.11166 175.798325 
L 368.354665 175.058955 
L 369.08368 173.674762 
L 369.326685 172.208017 
L 369.812695 164.883395 
L 370.0557 162.760786 
L 370.784714 161.284898 
L 371.027719 160.233546 
L 371.270724 161.080898 
L 371.756734 162.016349 
L 372.728753 170.405188 
L 372.971758 170.137397 
L 373.214763 166.488217 
L 373.457768 164.942518 
L 374.186783 162.73231 
L 375.158802 145.604807 
L 375.887817 141.176956 
L 376.616832 132.33102 
L 376.859837 125.815681 
L 377.345846 122.199513 
L 377.831856 110.153829 
L 378.074861 108.574475 
L 378.317866 106.002932 
L 379.046881 103.352981 
L 379.775895 95.97201 
L 380.0189 94.396448 
L 380.747915 91.784516 
L 381.719935 82.128058 
L 382.448949 79.795688 
L 382.691954 78.05155 
L 383.420969 70.517283 
L 384.149984 69.570014 
L 384.392989 69.558572 
L 384.878998 68.811798 
L 385.122003 67.587369 
L 385.851018 66.7174 
L 386.094023 65.795798 
L 386.580033 64.668718 
L 386.823038 63.991198 
L 387.552052 62.813201 
L 388.038062 60.806142 
L 388.281067 60.195468 
L 388.524072 61.128586 
L 389.253087 61.390025 
L 389.496091 62.115598 
L 389.739096 61.555308 
L 389.982101 62.482814 
L 390.954121 62.141038 
L 391.197126 61.277558 
L 391.683136 61.179348 
L 391.92614 61.297965 
L 392.89816 61.45677 
L 393.38417 61.094287 
L 393.627175 60.713085 
L 394.356189 60.397379 
L 394.842199 58.51811 
L 395.328209 56.40098 
L 396.300229 55.396619 
L 397.029243 54.32429 
L 397.758258 54.913483 
L 398.244268 56.09417 
L 398.487273 56.791938 
L 398.487273 56.791938 
" clip-path="url(#pde3fe3e965)" style="fill: none; stroke: #0000ff; stroke-width: 1.5; stroke-linecap: square"/>
   </g>
   <g id="patch_3">
    <path d="M 57.6 276.48 
L 57.6 41.472 
" style="fill: none; stroke: #000000; stroke-width: 0.8; stroke-linejoin: miter; stroke-linecap: square"/>
   </g>
   <g id="patch_4">
    <path d="M 414.72 276.48 
L 414.72 41.472 
" style="fill: none; stroke: #000000; stroke-width: 0.8; stroke-linejoin: miter; stroke-linecap: square"/>
   </g>
   <g id="patch_5">
    <path d="M 57.6 276.48 
L 414.72 276.48 
" style="fill: none; stroke: #000000; stroke-width: 0.8; stroke-linejoin: miter; stroke-linecap: square"/>
   </g>
   <g id="patch_6">
    <path d="M 57.6 41.472 
L 414.72 41.472 
" style="fill: none; stroke: #000000; stroke-width: 0.8; stroke-linejoin: miter; stroke-linecap: square"/>
   </g>
   <g id="text_18">
    <!-- correlation between EURJPY and AUDNZD (window=90days) -->
    <g transform="translate(55.324688 35.472)scale(0.12 -0.12)">
     <defs>
      <path id="DejaVuSans-63" d="M 3122 3366 
L 3122 2828 
Q 2878 2963 2633 3030 
Q 2388 3097 2138 3097 
Q 1578 3097 1268 2742 
Q 959 2388 959 1747 
Q 959 1106 1268 751 
Q 1578 397 2138 397 
Q 2388 397 2633 464 
Q 2878 531 3122 666 
L 3122 134 
Q 2881 22 2623 -34 
Q 2366 -91 2075 -91 
Q 1284 -91 818 406 
Q 353 903 353 1747 
Q 353 2603 823 3093 
Q 1294 3584 2113 3584 
Q 2378 3584 2631 3529 
Q 2884 3475 3122 3366 
z
" transform="scale(0.015625)"/>
      <path id="DejaVuSans-6f" d="M 1959 3097 
Q 1497 3097 1228 2736 
Q 959 2375 959 1747 
Q 959 1119 1226 758 
Q 1494 397 1959 397 
Q 2419 397 2687 759 
Q 2956 1122 2956 1747 
Q 2956 2369 2687 2733 
Q 2419 3097 1959 3097 
z
M 1959 3584 
Q 2709 3584 3137 3096 
Q 3566 2609 3566 1747 
Q 3566 888 3137 398 
Q 2709 -91 1959 -91 
Q 1206 -91 779 398 
Q 353 888 353 1747 
Q 353 2609 779 3096 
Q 1206 3584 1959 3584 
z
" transform="scale(0.015625)"/>
      <path id="DejaVuSans-72" d="M 2631 2963 
Q 2534 3019 2420 3045 
Q 2306 3072 2169 3072 
Q 1681 3072 1420 2755 
Q 1159 2438 1159 1844 
L 1159 0 
L 581 0 
L 581 3500 
L 1159 3500 
L 1159 2956 
Q 1341 3275 1631 3429 
Q 1922 3584 2338 3584 
Q 2397 3584 2469 3576 
Q 2541 3569 2628 3553 
L 2631 2963 
z
" transform="scale(0.015625)"/>
      <path id="DejaVuSans-6c" d="M 603 4863 
L 1178 4863 
L 1178 0 
L 603 0 
L 603 4863 
z
" transform="scale(0.015625)"/>
      <path id="DejaVuSans-69" d="M 603 3500 
L 1178 3500 
L 1178 0 
L 603 0 
L 603 3500 
z
M 603 4863 
L 1178 4863 
L 1178 4134 
L 603 4134 
L 603 4863 
z
" transform="scale(0.015625)"/>
      <path id="DejaVuSans-6e" d="M 3513 2113 
L 3513 0 
L 2938 0 
L 2938 2094 
Q 2938 2591 2744 2837 
Q 2550 3084 2163 3084 
Q 1697 3084 1428 2787 
Q 1159 2491 1159 1978 
L 1159 0 
L 581 0 
L 581 3500 
L 1159 3500 
L 1159 2956 
Q 1366 3272 1645 3428 
Q 1925 3584 2291 3584 
Q 2894 3584 3203 3211 
Q 3513 2838 3513 2113 
z
" transform="scale(0.015625)"/>
      <path id="DejaVuSans-20" transform="scale(0.015625)"/>
      <path id="DejaVuSans-62" d="M 3116 1747 
Q 3116 2381 2855 2742 
Q 2594 3103 2138 3103 
Q 1681 3103 1420 2742 
Q 1159 2381 1159 1747 
Q 1159 1113 1420 752 
Q 1681 391 2138 391 
Q 2594 391 2855 752 
Q 3116 1113 3116 1747 
z
M 1159 2969 
Q 1341 3281 1617 3432 
Q 1894 3584 2278 3584 
Q 2916 3584 3314 3078 
Q 3713 2572 3713 1747 
Q 3713 922 3314 415 
Q 2916 -91 2278 -91 
Q 1894 -91 1617 61 
Q 1341 213 1159 525 
L 1159 0 
L 581 0 
L 581 4863 
L 1159 4863 
L 1159 2969 
z
" transform="scale(0.015625)"/>
      <path id="DejaVuSans-77" d="M 269 3500 
L 844 3500 
L 1563 769 
L 2278 3500 
L 2956 3500 
L 3675 769 
L 4391 3500 
L 4966 3500 
L 4050 0 
L 3372 0 
L 2619 2869 
L 1863 0 
L 1184 0 
L 269 3500 
z
" transform="scale(0.015625)"/>
      <path id="DejaVuSans-45" d="M 628 4666 
L 3578 4666 
L 3578 4134 
L 1259 4134 
L 1259 2753 
L 3481 2753 
L 3481 2222 
L 1259 2222 
L 1259 531 
L 3634 531 
L 3634 0 
L 628 0 
L 628 4666 
z
" transform="scale(0.015625)"/>
      <path id="DejaVuSans-55" d="M 556 4666 
L 1191 4666 
L 1191 1831 
Q 1191 1081 1462 751 
Q 1734 422 2344 422 
Q 2950 422 3222 751 
Q 3494 1081 3494 1831 
L 3494 4666 
L 4128 4666 
L 4128 1753 
Q 4128 841 3676 375 
Q 3225 -91 2344 -91 
Q 1459 -91 1007 375 
Q 556 841 556 1753 
L 556 4666 
z
" transform="scale(0.015625)"/>
      <path id="DejaVuSans-52" d="M 2841 2188 
Q 3044 2119 3236 1894 
Q 3428 1669 3622 1275 
L 4263 0 
L 3584 0 
L 2988 1197 
Q 2756 1666 2539 1819 
Q 2322 1972 1947 1972 
L 1259 1972 
L 1259 0 
L 628 0 
L 628 4666 
L 2053 4666 
Q 2853 4666 3247 4331 
Q 3641 3997 3641 3322 
Q 3641 2881 3436 2590 
Q 3231 2300 2841 2188 
z
M 1259 4147 
L 1259 2491 
L 2053 2491 
Q 2509 2491 2742 2702 
Q 2975 2913 2975 3322 
Q 2975 3731 2742 3939 
Q 2509 4147 2053 4147 
L 1259 4147 
z
" transform="scale(0.015625)"/>
      <path id="DejaVuSans-4a" d="M 628 4666 
L 1259 4666 
L 1259 325 
Q 1259 -519 939 -900 
Q 619 -1281 -91 -1281 
L -331 -1281 
L -331 -750 
L -134 -750 
Q 284 -750 456 -515 
Q 628 -281 628 325 
L 628 4666 
z
" transform="scale(0.015625)"/>
      <path id="DejaVuSans-50" d="M 1259 4147 
L 1259 2394 
L 2053 2394 
Q 2494 2394 2734 2622 
Q 2975 2850 2975 3272 
Q 2975 3691 2734 3919 
Q 2494 4147 2053 4147 
L 1259 4147 
z
M 628 4666 
L 2053 4666 
Q 2838 4666 3239 4311 
Q 3641 3956 3641 3272 
Q 3641 2581 3239 2228 
Q 2838 1875 2053 1875 
L 1259 1875 
L 1259 0 
L 628 0 
L 628 4666 
z
" transform="scale(0.015625)"/>
      <path id="DejaVuSans-59" d="M -13 4666 
L 666 4666 
L 1959 2747 
L 3244 4666 
L 3922 4666 
L 2272 2222 
L 2272 0 
L 1638 0 
L 1638 2222 
L -13 4666 
z
" transform="scale(0.015625)"/>
      <path id="DejaVuSans-64" d="M 2906 2969 
L 2906 4863 
L 3481 4863 
L 3481 0 
L 2906 0 
L 2906 525 
Q 2725 213 2448 61 
Q 2172 -91 1784 -91 
Q 1150 -91 751 415 
Q 353 922 353 1747 
Q 353 2572 751 3078 
Q 1150 3584 1784 3584 
Q 2172 3584 2448 3432 
Q 2725 3281 2906 2969 
z
M 947 1747 
Q 947 1113 1208 752 
Q 1469 391 1925 391 
Q 2381 391 2643 752 
Q 2906 1113 2906 1747 
Q 2906 2381 2643 2742 
Q 2381 3103 1925 3103 
Q 1469 3103 1208 2742 
Q 947 2381 947 1747 
z
" transform="scale(0.015625)"/>
      <path id="DejaVuSans-41" d="M 2188 4044 
L 1331 1722 
L 3047 1722 
L 2188 4044 
z
M 1831 4666 
L 2547 4666 
L 4325 0 
L 3669 0 
L 3244 1197 
L 1141 1197 
L 716 0 
L 50 0 
L 1831 4666 
z
" transform="scale(0.015625)"/>
      <path id="DejaVuSans-4e" d="M 628 4666 
L 1478 4666 
L 3547 763 
L 3547 4666 
L 4159 4666 
L 4159 0 
L 3309 0 
L 1241 3903 
L 1241 0 
L 628 0 
L 628 4666 
z
" transform="scale(0.015625)"/>
      <path id="DejaVuSans-5a" d="M 359 4666 
L 4025 4666 
L 4025 4184 
L 1075 531 
L 4097 531 
L 4097 0 
L 288 0 
L 288 481 
L 3238 4134 
L 359 4134 
L 359 4666 
z
" transform="scale(0.015625)"/>
      <path id="DejaVuSans-28" d="M 1984 4856 
Q 1566 4138 1362 3434 
Q 1159 2731 1159 2009 
Q 1159 1288 1364 580 
Q 1569 -128 1984 -844 
L 1484 -844 
Q 1016 -109 783 600 
Q 550 1309 550 2009 
Q 550 2706 781 3412 
Q 1013 4119 1484 4856 
L 1984 4856 
z
" transform="scale(0.015625)"/>
      <path id="DejaVuSans-3d" d="M 678 2906 
L 4684 2906 
L 4684 2381 
L 678 2381 
L 678 2906 
z
M 678 1631 
L 4684 1631 
L 4684 1100 
L 678 1100 
L 678 1631 
z
" transform="scale(0.015625)"/>
      <path id="DejaVuSans-79" d="M 2059 -325 
Q 1816 -950 1584 -1140 
Q 1353 -1331 966 -1331 
L 506 -1331 
L 506 -850 
L 844 -850 
Q 1081 -850 1212 -737 
Q 1344 -625 1503 -206 
L 1606 56 
L 191 3500 
L 800 3500 
L 1894 763 
L 2988 3500 
L 3597 3500 
L 2059 -325 
z
" transform="scale(0.015625)"/>
      <path id="DejaVuSans-73" d="M 2834 3397 
L 2834 2853 
Q 2591 2978 2328 3040 
Q 2066 3103 1784 3103 
Q 1356 3103 1142 2972 
Q 928 2841 928 2578 
Q 928 2378 1081 2264 
Q 1234 2150 1697 2047 
L 1894 2003 
Q 2506 1872 2764 1633 
Q 3022 1394 3022 966 
Q 3022 478 2636 193 
Q 2250 -91 1575 -91 
Q 1294 -91 989 -36 
Q 684 19 347 128 
L 347 722 
Q 666 556 975 473 
Q 1284 391 1588 391 
Q 1994 391 2212 530 
Q 2431 669 2431 922 
Q 2431 1156 2273 1281 
Q 2116 1406 1581 1522 
L 1381 1569 
Q 847 1681 609 1914 
Q 372 2147 372 2553 
Q 372 3047 722 3315 
Q 1072 3584 1716 3584 
Q 2034 3584 2315 3537 
Q 2597 3491 2834 3397 
z
" transform="scale(0.015625)"/>
      <path id="DejaVuSans-29" d="M 513 4856 
L 1013 4856 
Q 1481 4119 1714 3412 
Q 1947 2706 1947 2009 
Q 1947 1309 1714 600 
Q 1481 -109 1013 -844 
L 513 -844 
Q 928 -128 1133 580 
Q 1338 1288 1338 2009 
Q 1338 2731 1133 3434 
Q 928 4138 513 4856 
z
" transform="scale(0.015625)"/>
     </defs>
     <use xlink:href="#DejaVuSans-63"/>
     <use xlink:href="#DejaVuSans-6f" x="54.980469"/>
     <use xlink:href="#DejaVuSans-72" x="116.162109"/>
     <use xlink:href="#DejaVuSans-72" x="155.525391"/>
     <use xlink:href="#DejaVuSans-65" x="194.388672"/>
     <use xlink:href="#DejaVuSans-6c" x="255.912109"/>
     <use xlink:href="#DejaVuSans-61" x="283.695312"/>
     <use xlink:href="#DejaVuSans-74" x="344.974609"/>
     <use xlink:href="#DejaVuSans-69" x="384.183594"/>
     <use xlink:href="#DejaVuSans-6f" x="411.966797"/>
     <use xlink:href="#DejaVuSans-6e" x="473.148438"/>
     <use xlink:href="#DejaVuSans-20" x="536.527344"/>
     <use xlink:href="#DejaVuSans-62" x="568.314453"/>
     <use xlink:href="#DejaVuSans-65" x="631.791016"/>
     <use xlink:href="#DejaVuSans-74" x="693.314453"/>
     <use xlink:href="#DejaVuSans-77" x="732.523438"/>
     <use xlink:href="#DejaVuSans-65" x="814.310547"/>
     <use xlink:href="#DejaVuSans-65" x="875.833984"/>
     <use xlink:href="#DejaVuSans-6e" x="937.357422"/>
     <use xlink:href="#DejaVuSans-20" x="1000.736328"/>
     <use xlink:href="#DejaVuSans-45" x="1032.523438"/>
     <use xlink:href="#DejaVuSans-55" x="1095.707031"/>
     <use xlink:href="#DejaVuSans-52" x="1168.900391"/>
     <use xlink:href="#DejaVuSans-4a" x="1238.382812"/>
     <use xlink:href="#DejaVuSans-50" x="1267.875"/>
     <use xlink:href="#DejaVuSans-59" x="1325.927734"/>
     <use xlink:href="#DejaVuSans-20" x="1387.011719"/>
     <use xlink:href="#DejaVuSans-61" x="1418.798828"/>
     <use xlink:href="#DejaVuSans-6e" x="1480.078125"/>
     <use xlink:href="#DejaVuSans-64" x="1543.457031"/>
     <use xlink:href="#DejaVuSans-20" x="1606.933594"/>
     <use xlink:href="#DejaVuSans-41" x="1638.720703"/>
     <use xlink:href="#DejaVuSans-55" x="1707.128906"/>
     <use xlink:href="#DejaVuSans-44" x="1780.322266"/>
     <use xlink:href="#DejaVuSans-4e" x="1857.324219"/>
     <use xlink:href="#DejaVuSans-5a" x="1932.128906"/>
     <use xlink:href="#DejaVuSans-44" x="2000.634766"/>
     <use xlink:href="#DejaVuSans-20" x="2077.636719"/>
     <use xlink:href="#DejaVuSans-28" x="2109.423828"/>
     <use xlink:href="#DejaVuSans-77" x="2148.4375"/>
     <use xlink:href="#DejaVuSans-69" x="2230.224609"/>
     <use xlink:href="#DejaVuSans-6e" x="2258.007812"/>
     <use xlink:href="#DejaVuSans-64" x="2321.386719"/>
     <use xlink:href="#DejaVuSans-6f" x="2384.863281"/>
     <use xlink:href="#DejaVuSans-77" x="2446.044922"/>
     <use xlink:href="#DejaVuSans-3d" x="2527.832031"/>
     <use xlink:href="#DejaVuSans-39" x="2611.621094"/>
     <use xlink:href="#DejaVuSans-30" x="2675.244141"/>
     <use xlink:href="#DejaVuSans-64" x="2738.867188"/>
     <use xlink:href="#DejaVuSans-61" x="2802.34375"/>
     <use xlink:href="#DejaVuSans-79" x="2863.623047"/>
     <use xlink:href="#DejaVuSans-73" x="2922.802734"/>
     <use xlink:href="#DejaVuSans-29" x="2974.902344"/>
    </g>
   </g>
  </g>
 </g>
 <defs>
  <clipPath id="pde3fe3e965">
   <rect x="57.6" y="41.472" width="357.12" height="235.008"/>
  </clipPath>
 </defs>
</svg>
