<?xml version="1.0" encoding="utf-8" standalone="no"?>
<!DOCTYPE svg PUBLIC "-//W3C//DTD SVG 1.1//EN"
  "http://www.w3.org/Graphics/SVG/1.1/DTD/svg11.dtd">
<svg xmlns:xlink="http://www.w3.org/1999/xlink" width="460.8pt" height="345.6pt" viewBox="0 0 460.8 345.6" xmlns="http://www.w3.org/2000/svg" version="1.1">
 <metadata>
  <rdf:RDF xmlns:dc="http://purl.org/dc/elements/1.1/" xmlns:cc="http://creativecommons.org/ns#" xmlns:rdf="http://www.w3.org/1999/02/22-rdf-syntax-ns#">
   <cc:Work>
    <dc:type rdf:resource="http://purl.org/dc/dcmitype/StillImage"/>
    <dc:date>2022-06-25T20:00:36.044530</dc:date>
    <dc:format>image/svg+xml</dc:format>
    <dc:creator>
     <cc:Agent>
      <dc:title>Matplotlib v3.5.1, https://matplotlib.org/</dc:title>
     </cc:Agent>
    </dc:creator>
   </cc:Work>
  </rdf:RDF>
 </metadata>
 <defs>
  <style type="text/css">*{stroke-linejoin: round; stroke-linecap: butt}</style>
 </defs>
 <g id="figure_1">
  <g id="patch_1">
   <path d="M 0 345.6 
L 460.8 345.6 
L 460.8 0 
L 0 0 
z
" style="fill: #ffffff"/>
  </g>
  <g id="axes_1">
   <g id="patch_2">
    <path d="M 57.6 276.48 
L 414.72 276.48 
L 414.72 41.472 
L 57.6 41.472 
z
" style="fill: #ffffff"/>
   </g>
   <g id="matplotlib.axis_1">
    <g id="xtick_1">
     <g id="line2d_1">
      <path d="M 99.096754 276.48 
L 99.096754 41.472 
" clip-path="url(#pe24880a4de)" style="fill: none; stroke: #d3d3d3; stroke-width: 0.8; stroke-linecap: square"/>
     </g>
     <g id="line2d_2">
      <defs>
       <path id="mfd539086f5" d="M 0 0 
L 0 3.5 
" style="stroke: #000000; stroke-width: 0.8"/>
      </defs>
      <g>
       <use xlink:href="#mfd539086f5" x="99.096754" y="276.48" style="stroke: #000000; stroke-width: 0.8"/>
      </g>
     </g>
     <g id="text_1">
      <!-- 2019-01 -->
      <g transform="translate(61.871933 310.951846)rotate(-30)scale(0.1 -0.1)">
       <defs>
        <path id="DejaVuSans-32" d="M 1228 531 
L 3431 531 
L 3431 0 
L 469 0 
L 469 531 
Q 828 903 1448 1529 
Q 2069 2156 2228 2338 
Q 2531 2678 2651 2914 
Q 2772 3150 2772 3378 
Q 2772 3750 2511 3984 
Q 2250 4219 1831 4219 
Q 1534 4219 1204 4116 
Q 875 4013 500 3803 
L 500 4441 
Q 881 4594 1212 4672 
Q 1544 4750 1819 4750 
Q 2544 4750 2975 4387 
Q 3406 4025 3406 3419 
Q 3406 3131 3298 2873 
Q 3191 2616 2906 2266 
Q 2828 2175 2409 1742 
Q 1991 1309 1228 531 
z
" transform="scale(0.015625)"/>
        <path id="DejaVuSans-30" d="M 2034 4250 
Q 1547 4250 1301 3770 
Q 1056 3291 1056 2328 
Q 1056 1369 1301 889 
Q 1547 409 2034 409 
Q 2525 409 2770 889 
Q 3016 1369 3016 2328 
Q 3016 3291 2770 3770 
Q 2525 4250 2034 4250 
z
M 2034 4750 
Q 2819 4750 3233 4129 
Q 3647 3509 3647 2328 
Q 3647 1150 3233 529 
Q 2819 -91 2034 -91 
Q 1250 -91 836 529 
Q 422 1150 422 2328 
Q 422 3509 836 4129 
Q 1250 4750 2034 4750 
z
" transform="scale(0.015625)"/>
        <path id="DejaVuSans-31" d="M 794 531 
L 1825 531 
L 1825 4091 
L 703 3866 
L 703 4441 
L 1819 4666 
L 2450 4666 
L 2450 531 
L 3481 531 
L 3481 0 
L 794 0 
L 794 531 
z
" transform="scale(0.015625)"/>
        <path id="DejaVuSans-39" d="M 703 97 
L 703 672 
Q 941 559 1184 500 
Q 1428 441 1663 441 
Q 2288 441 2617 861 
Q 2947 1281 2994 2138 
Q 2813 1869 2534 1725 
Q 2256 1581 1919 1581 
Q 1219 1581 811 2004 
Q 403 2428 403 3163 
Q 403 3881 828 4315 
Q 1253 4750 1959 4750 
Q 2769 4750 3195 4129 
Q 3622 3509 3622 2328 
Q 3622 1225 3098 567 
Q 2575 -91 1691 -91 
Q 1453 -91 1209 -44 
Q 966 3 703 97 
z
M 1959 2075 
Q 2384 2075 2632 2365 
Q 2881 2656 2881 3163 
Q 2881 3666 2632 3958 
Q 2384 4250 1959 4250 
Q 1534 4250 1286 3958 
Q 1038 3666 1038 3163 
Q 1038 2656 1286 2365 
Q 1534 2075 1959 2075 
z
" transform="scale(0.015625)"/>
        <path id="DejaVuSans-2d" d="M 313 2009 
L 1997 2009 
L 1997 1497 
L 313 1497 
L 313 2009 
z
" transform="scale(0.015625)"/>
       </defs>
       <use xlink:href="#DejaVuSans-32"/>
       <use xlink:href="#DejaVuSans-30" x="63.623047"/>
       <use xlink:href="#DejaVuSans-31" x="127.246094"/>
       <use xlink:href="#DejaVuSans-39" x="190.869141"/>
       <use xlink:href="#DejaVuSans-2d" x="254.492188"/>
       <use xlink:href="#DejaVuSans-30" x="290.576172"/>
       <use xlink:href="#DejaVuSans-31" x="354.199219"/>
      </g>
     </g>
    </g>
    <g id="xtick_2">
     <g id="line2d_3">
      <path d="M 141.833098 276.48 
L 141.833098 41.472 
" clip-path="url(#pe24880a4de)" style="fill: none; stroke: #d3d3d3; stroke-width: 0.8; stroke-linecap: square"/>
     </g>
     <g id="line2d_4">
      <g>
       <use xlink:href="#mfd539086f5" x="141.833098" y="276.48" style="stroke: #000000; stroke-width: 0.8"/>
      </g>
     </g>
     <g id="text_2">
      <!-- 2019-07 -->
      <g transform="translate(104.608277 310.951846)rotate(-30)scale(0.1 -0.1)">
       <defs>
        <path id="DejaVuSans-37" d="M 525 4666 
L 3525 4666 
L 3525 4397 
L 1831 0 
L 1172 0 
L 2766 4134 
L 525 4134 
L 525 4666 
z
" transform="scale(0.015625)"/>
       </defs>
       <use xlink:href="#DejaVuSans-32"/>
       <use xlink:href="#DejaVuSans-30" x="63.623047"/>
       <use xlink:href="#DejaVuSans-31" x="127.246094"/>
       <use xlink:href="#DejaVuSans-39" x="190.869141"/>
       <use xlink:href="#DejaVuSans-2d" x="254.492188"/>
       <use xlink:href="#DejaVuSans-30" x="290.576172"/>
       <use xlink:href="#DejaVuSans-37" x="354.199219"/>
      </g>
     </g>
    </g>
    <g id="xtick_3">
     <g id="line2d_5">
      <path d="M 185.277779 276.48 
L 185.277779 41.472 
" clip-path="url(#pe24880a4de)" style="fill: none; stroke: #d3d3d3; stroke-width: 0.8; stroke-linecap: square"/>
     </g>
     <g id="line2d_6">
      <g>
       <use xlink:href="#mfd539086f5" x="185.277779" y="276.48" style="stroke: #000000; stroke-width: 0.8"/>
      </g>
     </g>
     <g id="text_3">
      <!-- 2020-01 -->
      <g transform="translate(148.052958 310.951846)rotate(-30)scale(0.1 -0.1)">
       <use xlink:href="#DejaVuSans-32"/>
       <use xlink:href="#DejaVuSans-30" x="63.623047"/>
       <use xlink:href="#DejaVuSans-32" x="127.246094"/>
       <use xlink:href="#DejaVuSans-30" x="190.869141"/>
       <use xlink:href="#DejaVuSans-2d" x="254.492188"/>
       <use xlink:href="#DejaVuSans-30" x="290.576172"/>
       <use xlink:href="#DejaVuSans-31" x="354.199219"/>
      </g>
     </g>
    </g>
    <g id="xtick_4">
     <g id="line2d_7">
      <path d="M 228.250235 276.48 
L 228.250235 41.472 
" clip-path="url(#pe24880a4de)" style="fill: none; stroke: #d3d3d3; stroke-width: 0.8; stroke-linecap: square"/>
     </g>
     <g id="line2d_8">
      <g>
       <use xlink:href="#mfd539086f5" x="228.250235" y="276.48" style="stroke: #000000; stroke-width: 0.8"/>
      </g>
     </g>
     <g id="text_4">
      <!-- 2020-07 -->
      <g transform="translate(191.025414 310.951846)rotate(-30)scale(0.1 -0.1)">
       <use xlink:href="#DejaVuSans-32"/>
       <use xlink:href="#DejaVuSans-30" x="63.623047"/>
       <use xlink:href="#DejaVuSans-32" x="127.246094"/>
       <use xlink:href="#DejaVuSans-30" x="190.869141"/>
       <use xlink:href="#DejaVuSans-2d" x="254.492188"/>
       <use xlink:href="#DejaVuSans-30" x="290.576172"/>
       <use xlink:href="#DejaVuSans-37" x="354.199219"/>
      </g>
     </g>
    </g>
    <g id="xtick_5">
     <g id="line2d_9">
      <path d="M 271.694916 276.48 
L 271.694916 41.472 
" clip-path="url(#pe24880a4de)" style="fill: none; stroke: #d3d3d3; stroke-width: 0.8; stroke-linecap: square"/>
     </g>
     <g id="line2d_10">
      <g>
       <use xlink:href="#mfd539086f5" x="271.694916" y="276.48" style="stroke: #000000; stroke-width: 0.8"/>
      </g>
     </g>
     <g id="text_5">
      <!-- 2021-01 -->
      <g transform="translate(234.470095 310.951846)rotate(-30)scale(0.1 -0.1)">
       <use xlink:href="#DejaVuSans-32"/>
       <use xlink:href="#DejaVuSans-30" x="63.623047"/>
       <use xlink:href="#DejaVuSans-32" x="127.246094"/>
       <use xlink:href="#DejaVuSans-31" x="190.869141"/>
       <use xlink:href="#DejaVuSans-2d" x="254.492188"/>
       <use xlink:href="#DejaVuSans-30" x="290.576172"/>
       <use xlink:href="#DejaVuSans-31" x="354.199219"/>
      </g>
     </g>
    </g>
    <g id="xtick_6">
     <g id="line2d_11">
      <path d="M 314.43126 276.48 
L 314.43126 41.472 
" clip-path="url(#pe24880a4de)" style="fill: none; stroke: #d3d3d3; stroke-width: 0.8; stroke-linecap: square"/>
     </g>
     <g id="line2d_12">
      <g>
       <use xlink:href="#mfd539086f5" x="314.43126" y="276.48" style="stroke: #000000; stroke-width: 0.8"/>
      </g>
     </g>
     <g id="text_6">
      <!-- 2021-07 -->
      <g transform="translate(277.206439 310.951846)rotate(-30)scale(0.1 -0.1)">
       <use xlink:href="#DejaVuSans-32"/>
       <use xlink:href="#DejaVuSans-30" x="63.623047"/>
       <use xlink:href="#DejaVuSans-32" x="127.246094"/>
       <use xlink:href="#DejaVuSans-31" x="190.869141"/>
       <use xlink:href="#DejaVuSans-2d" x="254.492188"/>
       <use xlink:href="#DejaVuSans-30" x="290.576172"/>
       <use xlink:href="#DejaVuSans-37" x="354.199219"/>
      </g>
     </g>
    </g>
    <g id="xtick_7">
     <g id="line2d_13">
      <path d="M 357.87594 276.48 
L 357.87594 41.472 
" clip-path="url(#pe24880a4de)" style="fill: none; stroke: #d3d3d3; stroke-width: 0.8; stroke-linecap: square"/>
     </g>
     <g id="line2d_14">
      <g>
       <use xlink:href="#mfd539086f5" x="357.87594" y="276.48" style="stroke: #000000; stroke-width: 0.8"/>
      </g>
     </g>
     <g id="text_7">
      <!-- 2022-01 -->
      <g transform="translate(320.65112 310.951846)rotate(-30)scale(0.1 -0.1)">
       <use xlink:href="#DejaVuSans-32"/>
       <use xlink:href="#DejaVuSans-30" x="63.623047"/>
       <use xlink:href="#DejaVuSans-32" x="127.246094"/>
       <use xlink:href="#DejaVuSans-32" x="190.869141"/>
       <use xlink:href="#DejaVuSans-2d" x="254.492188"/>
       <use xlink:href="#DejaVuSans-30" x="290.576172"/>
       <use xlink:href="#DejaVuSans-31" x="354.199219"/>
      </g>
     </g>
    </g>
    <g id="xtick_8">
     <g id="line2d_15">
      <path d="M 400.612284 276.48 
L 400.612284 41.472 
" clip-path="url(#pe24880a4de)" style="fill: none; stroke: #d3d3d3; stroke-width: 0.8; stroke-linecap: square"/>
     </g>
     <g id="line2d_16">
      <g>
       <use xlink:href="#mfd539086f5" x="400.612284" y="276.48" style="stroke: #000000; stroke-width: 0.8"/>
      </g>
     </g>
     <g id="text_8">
      <!-- 2022-07 -->
      <g transform="translate(363.387463 310.951846)rotate(-30)scale(0.1 -0.1)">
       <use xlink:href="#DejaVuSans-32"/>
       <use xlink:href="#DejaVuSans-30" x="63.623047"/>
       <use xlink:href="#DejaVuSans-32" x="127.246094"/>
       <use xlink:href="#DejaVuSans-32" x="190.869141"/>
       <use xlink:href="#DejaVuSans-2d" x="254.492188"/>
       <use xlink:href="#DejaVuSans-30" x="290.576172"/>
       <use xlink:href="#DejaVuSans-37" x="354.199219"/>
      </g>
     </g>
    </g>
    <g id="text_9">
     <!-- Date -->
     <g transform="translate(224.209219 324.351346)scale(0.1 -0.1)">
      <defs>
       <path id="DejaVuSans-44" d="M 1259 4147 
L 1259 519 
L 2022 519 
Q 2988 519 3436 956 
Q 3884 1394 3884 2338 
Q 3884 3275 3436 3711 
Q 2988 4147 2022 4147 
L 1259 4147 
z
M 628 4666 
L 1925 4666 
Q 3281 4666 3915 4102 
Q 4550 3538 4550 2338 
Q 4550 1131 3912 565 
Q 3275 0 1925 0 
L 628 0 
L 628 4666 
z
" transform="scale(0.015625)"/>
       <path id="DejaVuSans-61" d="M 2194 1759 
Q 1497 1759 1228 1600 
Q 959 1441 959 1056 
Q 959 750 1161 570 
Q 1363 391 1709 391 
Q 2188 391 2477 730 
Q 2766 1069 2766 1631 
L 2766 1759 
L 2194 1759 
z
M 3341 1997 
L 3341 0 
L 2766 0 
L 2766 531 
Q 2569 213 2275 61 
Q 1981 -91 1556 -91 
Q 1019 -91 701 211 
Q 384 513 384 1019 
Q 384 1609 779 1909 
Q 1175 2209 1959 2209 
L 2766 2209 
L 2766 2266 
Q 2766 2663 2505 2880 
Q 2244 3097 1772 3097 
Q 1472 3097 1187 3025 
Q 903 2953 641 2809 
L 641 3341 
Q 956 3463 1253 3523 
Q 1550 3584 1831 3584 
Q 2591 3584 2966 3190 
Q 3341 2797 3341 1997 
z
" transform="scale(0.015625)"/>
       <path id="DejaVuSans-74" d="M 1172 4494 
L 1172 3500 
L 2356 3500 
L 2356 3053 
L 1172 3053 
L 1172 1153 
Q 1172 725 1289 603 
Q 1406 481 1766 481 
L 2356 481 
L 2356 0 
L 1766 0 
Q 1100 0 847 248 
Q 594 497 594 1153 
L 594 3053 
L 172 3053 
L 172 3500 
L 594 3500 
L 594 4494 
L 1172 4494 
z
" transform="scale(0.015625)"/>
       <path id="DejaVuSans-65" d="M 3597 1894 
L 3597 1613 
L 953 1613 
Q 991 1019 1311 708 
Q 1631 397 2203 397 
Q 2534 397 2845 478 
Q 3156 559 3463 722 
L 3463 178 
Q 3153 47 2828 -22 
Q 2503 -91 2169 -91 
Q 1331 -91 842 396 
Q 353 884 353 1716 
Q 353 2575 817 3079 
Q 1281 3584 2069 3584 
Q 2775 3584 3186 3129 
Q 3597 2675 3597 1894 
z
M 3022 2063 
Q 3016 2534 2758 2815 
Q 2500 3097 2075 3097 
Q 1594 3097 1305 2825 
Q 1016 2553 972 2059 
L 3022 2063 
z
" transform="scale(0.015625)"/>
      </defs>
      <use xlink:href="#DejaVuSans-44"/>
      <use xlink:href="#DejaVuSans-61" x="77.001953"/>
      <use xlink:href="#DejaVuSans-74" x="138.28125"/>
      <use xlink:href="#DejaVuSans-65" x="177.490234"/>
     </g>
    </g>
   </g>
   <g id="matplotlib.axis_2">
    <g id="ytick_1">
     <g id="line2d_17">
      <path d="M 57.6 261.225675 
L 414.72 261.225675 
" clip-path="url(#pe24880a4de)" style="fill: none; stroke: #d3d3d3; stroke-width: 0.8; stroke-linecap: square"/>
     </g>
     <g id="line2d_18">
      <defs>
       <path id="m51db56a1cc" d="M 0 0 
L -3.5 0 
" style="stroke: #000000; stroke-width: 0.8"/>
      </defs>
      <g>
       <use xlink:href="#m51db56a1cc" x="57.6" y="261.225675" style="stroke: #000000; stroke-width: 0.8"/>
      </g>
     </g>
     <g id="text_10">
      <!-- −0.6 -->
      <g transform="translate(26.317187 265.024894)scale(0.1 -0.1)">
       <defs>
        <path id="DejaVuSans-2212" d="M 678 2272 
L 4684 2272 
L 4684 1741 
L 678 1741 
L 678 2272 
z
" transform="scale(0.015625)"/>
        <path id="DejaVuSans-2e" d="M 684 794 
L 1344 794 
L 1344 0 
L 684 0 
L 684 794 
z
" transform="scale(0.015625)"/>
        <path id="DejaVuSans-36" d="M 2113 2584 
Q 1688 2584 1439 2293 
Q 1191 2003 1191 1497 
Q 1191 994 1439 701 
Q 1688 409 2113 409 
Q 2538 409 2786 701 
Q 3034 994 3034 1497 
Q 3034 2003 2786 2293 
Q 2538 2584 2113 2584 
z
M 3366 4563 
L 3366 3988 
Q 3128 4100 2886 4159 
Q 2644 4219 2406 4219 
Q 1781 4219 1451 3797 
Q 1122 3375 1075 2522 
Q 1259 2794 1537 2939 
Q 1816 3084 2150 3084 
Q 2853 3084 3261 2657 
Q 3669 2231 3669 1497 
Q 3669 778 3244 343 
Q 2819 -91 2113 -91 
Q 1303 -91 875 529 
Q 447 1150 447 2328 
Q 447 3434 972 4092 
Q 1497 4750 2381 4750 
Q 2619 4750 2861 4703 
Q 3103 4656 3366 4563 
z
" transform="scale(0.015625)"/>
       </defs>
       <use xlink:href="#DejaVuSans-2212"/>
       <use xlink:href="#DejaVuSans-30" x="83.789062"/>
       <use xlink:href="#DejaVuSans-2e" x="147.412109"/>
       <use xlink:href="#DejaVuSans-36" x="179.199219"/>
      </g>
     </g>
    </g>
    <g id="ytick_2">
     <g id="line2d_19">
      <path d="M 57.6 232.990864 
L 414.72 232.990864 
" clip-path="url(#pe24880a4de)" style="fill: none; stroke: #d3d3d3; stroke-width: 0.8; stroke-linecap: square"/>
     </g>
     <g id="line2d_20">
      <g>
       <use xlink:href="#m51db56a1cc" x="57.6" y="232.990864" style="stroke: #000000; stroke-width: 0.8"/>
      </g>
     </g>
     <g id="text_11">
      <!-- −0.4 -->
      <g transform="translate(26.317187 236.790082)scale(0.1 -0.1)">
       <defs>
        <path id="DejaVuSans-34" d="M 2419 4116 
L 825 1625 
L 2419 1625 
L 2419 4116 
z
M 2253 4666 
L 3047 4666 
L 3047 1625 
L 3713 1625 
L 3713 1100 
L 3047 1100 
L 3047 0 
L 2419 0 
L 2419 1100 
L 313 1100 
L 313 1709 
L 2253 4666 
z
" transform="scale(0.015625)"/>
       </defs>
       <use xlink:href="#DejaVuSans-2212"/>
       <use xlink:href="#DejaVuSans-30" x="83.789062"/>
       <use xlink:href="#DejaVuSans-2e" x="147.412109"/>
       <use xlink:href="#DejaVuSans-34" x="179.199219"/>
      </g>
     </g>
    </g>
    <g id="ytick_3">
     <g id="line2d_21">
      <path d="M 57.6 204.756052 
L 414.72 204.756052 
" clip-path="url(#pe24880a4de)" style="fill: none; stroke: #d3d3d3; stroke-width: 0.8; stroke-linecap: square"/>
     </g>
     <g id="line2d_22">
      <g>
       <use xlink:href="#m51db56a1cc" x="57.6" y="204.756052" style="stroke: #000000; stroke-width: 0.8"/>
      </g>
     </g>
     <g id="text_12">
      <!-- −0.2 -->
      <g transform="translate(26.317187 208.555271)scale(0.1 -0.1)">
       <use xlink:href="#DejaVuSans-2212"/>
       <use xlink:href="#DejaVuSans-30" x="83.789062"/>
       <use xlink:href="#DejaVuSans-2e" x="147.412109"/>
       <use xlink:href="#DejaVuSans-32" x="179.199219"/>
      </g>
     </g>
    </g>
    <g id="ytick_4">
     <g id="line2d_23">
      <path d="M 57.6 176.52124 
L 414.72 176.52124 
" clip-path="url(#pe24880a4de)" style="fill: none; stroke: #d3d3d3; stroke-width: 0.8; stroke-linecap: square"/>
     </g>
     <g id="line2d_24">
      <g>
       <use xlink:href="#m51db56a1cc" x="57.6" y="176.52124" style="stroke: #000000; stroke-width: 0.8"/>
      </g>
     </g>
     <g id="text_13">
      <!-- 0.0 -->
      <g transform="translate(34.696875 180.320459)scale(0.1 -0.1)">
       <use xlink:href="#DejaVuSans-30"/>
       <use xlink:href="#DejaVuSans-2e" x="63.623047"/>
       <use xlink:href="#DejaVuSans-30" x="95.410156"/>
      </g>
     </g>
    </g>
    <g id="ytick_5">
     <g id="line2d_25">
      <path d="M 57.6 148.286429 
L 414.72 148.286429 
" clip-path="url(#pe24880a4de)" style="fill: none; stroke: #d3d3d3; stroke-width: 0.8; stroke-linecap: square"/>
     </g>
     <g id="line2d_26">
      <g>
       <use xlink:href="#m51db56a1cc" x="57.6" y="148.286429" style="stroke: #000000; stroke-width: 0.8"/>
      </g>
     </g>
     <g id="text_14">
      <!-- 0.2 -->
      <g transform="translate(34.696875 152.085647)scale(0.1 -0.1)">
       <use xlink:href="#DejaVuSans-30"/>
       <use xlink:href="#DejaVuSans-2e" x="63.623047"/>
       <use xlink:href="#DejaVuSans-32" x="95.410156"/>
      </g>
     </g>
    </g>
    <g id="ytick_6">
     <g id="line2d_27">
      <path d="M 57.6 120.051617 
L 414.72 120.051617 
" clip-path="url(#pe24880a4de)" style="fill: none; stroke: #d3d3d3; stroke-width: 0.8; stroke-linecap: square"/>
     </g>
     <g id="line2d_28">
      <g>
       <use xlink:href="#m51db56a1cc" x="57.6" y="120.051617" style="stroke: #000000; stroke-width: 0.8"/>
      </g>
     </g>
     <g id="text_15">
      <!-- 0.4 -->
      <g transform="translate(34.696875 123.850836)scale(0.1 -0.1)">
       <use xlink:href="#DejaVuSans-30"/>
       <use xlink:href="#DejaVuSans-2e" x="63.623047"/>
       <use xlink:href="#DejaVuSans-34" x="95.410156"/>
      </g>
     </g>
    </g>
    <g id="ytick_7">
     <g id="line2d_29">
      <path d="M 57.6 91.816805 
L 414.72 91.816805 
" clip-path="url(#pe24880a4de)" style="fill: none; stroke: #d3d3d3; stroke-width: 0.8; stroke-linecap: square"/>
     </g>
     <g id="line2d_30">
      <g>
       <use xlink:href="#m51db56a1cc" x="57.6" y="91.816805" style="stroke: #000000; stroke-width: 0.8"/>
      </g>
     </g>
     <g id="text_16">
      <!-- 0.6 -->
      <g transform="translate(34.696875 95.616024)scale(0.1 -0.1)">
       <use xlink:href="#DejaVuSans-30"/>
       <use xlink:href="#DejaVuSans-2e" x="63.623047"/>
       <use xlink:href="#DejaVuSans-36" x="95.410156"/>
      </g>
     </g>
    </g>
    <g id="ytick_8">
     <g id="line2d_31">
      <path d="M 57.6 63.581994 
L 414.72 63.581994 
" clip-path="url(#pe24880a4de)" style="fill: none; stroke: #d3d3d3; stroke-width: 0.8; stroke-linecap: square"/>
     </g>
     <g id="line2d_32">
      <g>
       <use xlink:href="#m51db56a1cc" x="57.6" y="63.581994" style="stroke: #000000; stroke-width: 0.8"/>
      </g>
     </g>
     <g id="text_17">
      <!-- 0.8 -->
      <g transform="translate(34.696875 67.381213)scale(0.1 -0.1)">
       <defs>
        <path id="DejaVuSans-38" d="M 2034 2216 
Q 1584 2216 1326 1975 
Q 1069 1734 1069 1313 
Q 1069 891 1326 650 
Q 1584 409 2034 409 
Q 2484 409 2743 651 
Q 3003 894 3003 1313 
Q 3003 1734 2745 1975 
Q 2488 2216 2034 2216 
z
M 1403 2484 
Q 997 2584 770 2862 
Q 544 3141 544 3541 
Q 544 4100 942 4425 
Q 1341 4750 2034 4750 
Q 2731 4750 3128 4425 
Q 3525 4100 3525 3541 
Q 3525 3141 3298 2862 
Q 3072 2584 2669 2484 
Q 3125 2378 3379 2068 
Q 3634 1759 3634 1313 
Q 3634 634 3220 271 
Q 2806 -91 2034 -91 
Q 1263 -91 848 271 
Q 434 634 434 1313 
Q 434 1759 690 2068 
Q 947 2378 1403 2484 
z
M 1172 3481 
Q 1172 3119 1398 2916 
Q 1625 2713 2034 2713 
Q 2441 2713 2670 2916 
Q 2900 3119 2900 3481 
Q 2900 3844 2670 4047 
Q 2441 4250 2034 4250 
Q 1625 4250 1398 4047 
Q 1172 3844 1172 3481 
z
" transform="scale(0.015625)"/>
       </defs>
       <use xlink:href="#DejaVuSans-30"/>
       <use xlink:href="#DejaVuSans-2e" x="63.623047"/>
       <use xlink:href="#DejaVuSans-38" x="95.410156"/>
      </g>
     </g>
    </g>
   </g>
   <g id="line2d_33">
    <path d="M 73.832727 186.824719 
L 74.06884 185.810101 
L 74.304952 183.136159 
L 74.777177 182.396351 
L 76.193851 181.893177 
L 76.429964 181.120114 
L 77.138301 180.668841 
L 77.374413 181.544627 
L 78.08275 187.58803 
L 78.791088 187.652676 
L 79.0272 188.136488 
L 79.499425 187.477608 
L 79.735537 188.119259 
L 80.679987 188.288397 
L 80.916099 187.952132 
L 81.152212 188.55844 
L 81.388324 191.475918 
L 82.096661 195.878143 
L 82.804998 212.418265 
L 83.041111 215.053169 
L 83.98556 218.962811 
L 84.221673 221.476944 
L 84.693898 223.091996 
L 84.93001 221.951265 
L 85.638347 220.118014 
L 86.346684 216.823665 
L 86.582797 214.630757 
L 87.291134 209.835297 
L 87.763359 199.706201 
L 88.235583 193.213933 
L 88.943921 192.39486 
L 89.416145 186.770172 
L 89.652258 185.807789 
L 89.88837 183.719913 
L 90.596707 181.781318 
L 91.305045 177.853749 
L 91.541157 177.025608 
L 92.249494 176.194351 
L 92.485607 174.851336 
L 93.193944 167.879972 
L 93.902281 166.222951 
L 94.610618 161.748718 
L 94.846731 156.276162 
L 95.555068 148.872175 
L 96.027293 133.133192 
L 96.499517 113.243884 
L 97.207855 101.649757 
L 97.680079 85.654686 
L 98.152304 79.886073 
L 98.860641 77.851681 
L 99.332866 75.025934 
L 99.568979 75.594529 
L 99.805091 75.328835 
L 100.513428 75.017378 
L 101.457878 73.036487 
L 102.402327 71.837766 
L 102.63844 71.930218 
L 102.874552 72.623135 
L 103.110664 73.697562 
L 103.819002 74.794077 
L 104.055114 75.861708 
L 104.527339 76.383431 
L 105.471788 76.833296 
L 105.944013 77.832697 
L 106.416238 79.232035 
L 107.124575 80.388671 
L 108.069025 84.870153 
L 108.777362 85.983321 
L 109.013474 86.628393 
L 109.485699 88.451574 
L 109.721812 89.068067 
L 110.430149 89.619882 
L 111.374598 94.099324 
L 112.082936 95.696254 
L 112.55516 98.083345 
L 112.791273 98.478132 
L 113.027385 98.451371 
L 113.735722 99.073043 
L 114.207947 101.255186 
L 114.44406 101.600148 
L 114.680172 102.220986 
L 115.388509 103.245526 
L 115.860734 109.717678 
L 116.332959 119.34203 
L 117.041296 122.900584 
L 117.513521 129.467648 
L 117.749633 132.663519 
L 117.985745 134.084841 
L 118.694083 135.23884 
L 119.166307 137.63093 
L 119.638532 143.095256 
L 120.110757 146.815605 
L 120.819094 162.519831 
L 121.055207 169.525195 
L 121.763544 177.176649 
L 122.235769 187.210086 
L 122.471881 189.015274 
L 122.707993 189.393749 
L 123.416331 187.361886 
L 123.888555 184.095124 
L 124.124668 185.211745 
L 124.36078 188.127927 
L 125.069117 190.128322 
L 125.30523 190.042673 
L 125.541342 190.286815 
L 126.013567 195.977603 
L 126.958017 197.128122 
L 127.194129 197.1665 
L 127.430241 198.009617 
L 127.666354 199.709694 
L 128.374691 201.507457 
L 128.610803 202.696524 
L 129.31914 215.669817 
L 130.027478 216.700791 
L 130.26359 216.771721 
L 130.499702 217.161403 
L 130.735815 217.126883 
L 130.971927 216.846498 
L 131.680264 217.782317 
L 132.152489 218.985526 
L 132.388602 219.452577 
L 132.624714 220.352015 
L 133.333051 221.520854 
L 133.569164 222.228473 
L 134.277501 229.296069 
L 134.985838 230.780513 
L 135.22195 231.918171 
L 135.458063 231.890036 
L 135.694175 231.234009 
L 135.930288 230.972188 
L 136.638625 230.810558 
L 137.11085 231.536956 
L 137.346962 231.262531 
L 137.583074 231.576702 
L 138.291412 232.043799 
L 138.763636 230.957583 
L 138.999749 229.553868 
L 139.235861 229.073011 
L 139.944198 228.614119 
L 140.416423 225.360595 
L 140.888648 222.066522 
L 141.596985 219.934855 
L 142.541435 211.047018 
L 143.249772 208.578157 
L 144.194221 197.267728 
L 144.902559 194.306432 
L 145.374783 183.68121 
L 145.847008 167.325922 
L 146.555345 158.184806 
L 147.02757 138.561367 
L 147.499795 118.230811 
L 148.208132 109.750693 
L 148.680357 93.799295 
L 149.152582 83.981764 
L 149.860919 78.022427 
L 150.333144 69.562172 
L 150.569256 68.790403 
L 150.805369 69.334724 
L 151.513706 69.725399 
L 152.222043 74.265097 
L 152.458155 77.687294 
L 153.166493 81.108711 
L 153.402605 84.833417 
L 154.110942 108.569591 
L 154.819279 117.279298 
L 155.763729 157.589039 
L 156.472066 166.990491 
L 157.180403 194.032246 
L 157.416516 199.143637 
L 158.124853 203.553976 
L 158.83319 219.325028 
L 159.069302 221.901441 
L 159.77764 224.605599 
L 160.013752 225.989594 
L 160.249864 226.410528 
L 160.722089 228.36623 
L 161.430426 231.562258 
L 162.374876 243.103716 
L 163.083213 245.710901 
L 164.027663 254.895794 
L 164.736 256.415705 
L 165.208225 258.705544 
L 165.444337 259.088578 
L 166.861012 258.013605 
L 167.333236 253.521574 
L 168.041574 251.39138 
L 168.986023 244.701571 
L 169.930473 242.426812 
L 170.402698 234.691842 
L 170.874922 227.355246 
L 171.58326 223.024069 
L 172.527709 206.640237 
L 173.236046 203.79394 
L 174.180496 191.062506 
L 174.888833 187.844577 
L 175.833283 175.239362 
L 176.54162 171.459694 
L 177.486069 161.499103 
L 178.194407 159.396576 
L 178.666631 153.558679 
L 178.902744 154.843919 
L 179.138856 159.080786 
L 179.847193 163.979892 
L 180.083306 166.821636 
L 180.555531 176.078508 
L 180.791643 183.416453 
L 181.49998 191.859001 
L 182.208317 210.708931 
L 182.44443 215.593398 
L 183.152767 219.313683 
L 184.097217 234.536138 
L 184.805554 239.416807 
L 185.277779 245.978323 
L 185.513891 248.046252 
L 185.750003 248.986193 
L 186.45834 250.882594 
L 186.694453 253.354744 
L 187.166678 255.405574 
L 187.40279 257.010886 
L 188.111127 258.791744 
L 188.583352 261.07614 
L 189.055577 263.371604 
L 189.763914 263.806417 
L 190.236139 264.858557 
L 190.472251 264.545711 
L 190.708364 263.265673 
L 191.416701 260.133439 
L 192.36115 248.502846 
L 193.069488 244.907049 
L 193.541712 240.261721 
L 194.013937 237.317605 
L 194.722274 234.959594 
L 195.194499 230.957976 
L 195.666724 220.379303 
L 196.375061 214.668503 
L 196.611174 208.689298 
L 196.847286 205.663102 
L 198.027848 207.969486 
L 198.26396 207.858997 
L 198.500073 206.973475 
L 198.736185 207.079364 
L 198.972298 205.458142 
L 199.680635 205.115031 
L 199.916747 205.714859 
L 200.388972 209.591801 
L 200.625084 208.765962 
L 201.805646 199.746725 
L 202.277871 185.242828 
L 202.986208 173.23102 
L 203.930658 131.260946 
L 204.638995 127.062696 
L 205.11122 122.719391 
L 205.347332 122.909709 
L 205.583445 120.503701 
L 206.055669 117.005253 
L 207.000119 105.547638 
L 208.180681 102.587822 
L 208.416793 103.35784 
L 208.652906 105.011371 
L 209.361243 108.34077 
L 209.833468 121.584434 
L 210.305693 138.832399 
L 211.01403 144.445856 
L 211.486255 157.177902 
L 211.958479 174.627901 
L 212.666817 182.607004 
L 213.139041 200.06872 
L 213.611266 207.89693 
L 214.319603 211.438493 
L 215.264053 230.544292 
L 215.97239 233.390275 
L 216.444615 237.481055 
L 216.91684 243.494422 
L 217.625177 245.988211 
L 218.569626 250.923484 
L 219.277964 252.314609 
L 219.514076 253.058189 
L 219.750188 252.817965 
L 219.986301 251.975225 
L 220.222413 249.228815 
L 220.93075 245.015431 
L 221.402975 228.911832 
L 221.8752 209.698509 
L 222.583537 203.10384 
L 223.291874 191.874547 
L 223.527987 189.49658 
L 224.236324 188.003868 
L 224.708549 183.707122 
L 225.180774 181.423576 
L 225.889111 180.5464 
L 226.361336 177.730849 
L 226.83356 174.3176 
L 227.541898 172.281953 
L 228.250235 166.398737 
L 228.486347 165.354717 
L 229.194684 164.05344 
L 229.430797 162.775127 
L 230.139134 161.205915 
L 230.847471 161.739429 
L 231.083583 161.150329 
L 231.319696 160.015616 
L 231.555808 160.404887 
L 231.791921 159.820706 
L 232.500258 159.49459 
L 233.444707 155.541489 
L 234.153045 154.504691 
L 234.625269 147.541714 
L 235.097494 137.230123 
L 235.805831 133.774722 
L 236.278056 128.046958 
L 236.750281 125.62043 
L 237.458618 122.251243 
L 237.930843 112.702982 
L 238.403068 101.719934 
L 239.111405 98.049231 
L 239.58363 94.425048 
L 239.819742 93.393872 
L 240.055855 92.964137 
L 240.764192 92.556722 
L 241.000304 92.189543 
L 241.472529 91.012552 
L 241.708641 90.444785 
L 242.416979 89.436843 
L 242.889203 85.436453 
L 243.125316 85.532596 
L 243.361428 85.985194 
L 244.54199 86.499125 
L 245.014215 85.05847 
L 245.722552 84.85599 
L 245.958664 84.977891 
L 246.194777 84.025755 
L 246.667002 77.097283 
L 247.375339 72.533913 
L 247.611451 69.661475 
L 248.319788 65.945525 
L 249.028126 63.611437 
L 249.50035 60.250386 
L 250.680912 56.32321 
L 250.917025 53.786478 
L 251.153137 52.952777 
L 251.38925 52.879234 
L 251.625362 52.441082 
L 252.333699 52.154182 
L 252.805924 52.437991 
L 253.986486 54.23101 
L 254.694823 57.799316 
L 254.930936 58.182698 
L 255.875385 59.415749 
L 256.111498 60.40287 
L 256.583722 58.574883 
L 256.819835 56.87347 
L 257.528172 55.924148 
L 258.000397 54.144166 
L 258.472621 54.463818 
L 259.180959 55.11642 
L 259.653183 59.515107 
L 260.125408 65.305186 
L 260.833745 67.871706 
L 261.069858 69.295229 
L 261.30597 69.825471 
L 261.542083 70.062137 
L 261.778195 70.758396 
L 262.486532 71.530759 
L 263.430982 80.801805 
L 264.139319 84.639711 
L 264.375431 90.450057 
L 265.083769 113.223669 
L 265.792106 118.49843 
L 266.500443 130.653185 
L 266.736555 133.105192 
L 267.444893 135.161136 
L 268.15323 143.463345 
L 268.389342 147.273094 
L 269.097679 151.199447 
L 269.806017 159.233954 
L 270.042129 161.31211 
L 270.750466 162.857218 
L 271.458803 171.852316 
L 271.694916 178.160973 
L 272.403253 181.390245 
L 272.639365 186.176306 
L 273.11159 189.737147 
L 273.347702 190.64051 
L 274.05604 191.764408 
L 274.292152 191.593146 
L 274.528264 191.148175 
L 275.000489 194.295092 
L 275.708826 195.727927 
L 275.944939 195.635288 
L 276.417164 190.95168 
L 276.653276 188.866676 
L 277.361613 186.17155 
L 278.06995 177.76373 
L 278.306063 176.154229 
L 279.0144 174.635952 
L 279.250512 173.03413 
L 279.486625 172.545933 
L 279.722737 171.426517 
L 279.95885 169.579506 
L 280.667187 167.92891 
L 280.903299 166.652738 
L 281.375524 161.315133 
L 281.611636 158.002698 
L 282.319974 153.509813 
L 283.264423 133.301004 
L 283.97276 129.489465 
L 284.444985 123.36026 
L 284.681098 121.868886 
L 284.91721 122.036195 
L 285.625547 122.121605 
L 285.86166 121.323771 
L 286.333884 118.749094 
L 286.569997 117.29985 
L 287.278334 115.548275 
L 287.514446 112.968677 
L 287.986671 102.961041 
L 288.222783 96.172443 
L 289.87557 88.482943 
L 290.583907 87.677347 
L 290.82002 86.060737 
L 291.292245 86.724734 
L 291.528357 87.422921 
L 292.000582 87.877938 
L 292.236694 88.479176 
L 292.472807 88.66101 
L 292.708919 89.339184 
L 292.945031 90.754824 
L 293.653369 92.075239 
L 293.889481 92.804557 
L 294.361706 90.086273 
L 294.597818 89.351449 
L 295.77838 88.765923 
L 296.250605 89.221187 
L 296.958942 89.415046 
L 297.195055 90.177261 
L 297.667279 92.48582 
L 297.903392 93.217866 
L 298.611729 94.053596 
L 298.847841 95.002506 
L 299.083954 97.195251 
L 299.556179 104.319746 
L 300.500628 106.812166 
L 300.972853 110.959631 
L 301.208965 114.283193 
L 301.917302 115.4954 
L 302.62564 121.002622 
L 302.861752 124.119272 
L 303.570089 126.717216 
L 303.806202 128.608472 
L 304.042314 129.405481 
L 304.278426 128.677885 
L 304.514539 127.503387 
L 305.458988 125.478065 
L 305.695101 127.112481 
L 306.167326 140.932137 
L 306.875663 148.210679 
L 307.584 165.453673 
L 307.820112 169.915485 
L 308.52845 175.364469 
L 308.764562 181.468324 
L 309.472899 208.784239 
L 310.181236 214.461643 
L 310.653461 224.977567 
L 311.125686 232.797734 
L 311.834023 234.974073 
L 312.070136 237.361903 
L 312.306248 238.459051 
L 312.778473 241.904283 
L 313.48681 243.267117 
L 313.722922 243.451177 
L 313.959035 245.153717 
L 314.195147 247.9734 
L 314.43126 254.148802 
L 315.139597 261.469126 
L 315.375709 265.567939 
L 315.611821 265.797818 
L 315.847934 261.30811 
L 316.084046 261.217932 
L 316.792383 262.028591 
L 317.028496 262.758036 
L 317.264608 260.888889 
L 317.500721 256.885924 
L 317.736833 248.756161 
L 318.44517 238.699042 
L 318.917395 223.620168 
L 319.38962 211.655587 
L 320.097957 206.006725 
L 321.042407 173.14849 
L 321.750744 163.822301 
L 322.459081 138.669134 
L 322.695193 133.329858 
L 323.403531 127.409303 
L 324.34798 106.626459 
L 325.056317 101.002694 
L 325.764655 86.583942 
L 326.000767 81.813446 
L 326.709104 77.32247 
L 327.417441 69.305638 
L 327.653554 66.834691 
L 328.598003 64.480974 
L 329.070228 65.792798 
L 329.30634 66.53694 
L 330.014678 67.057489 
L 330.25079 67.066474 
L 330.959127 67.95778 
L 331.667464 68.356552 
L 331.903577 68.912533 
L 332.375802 68.512767 
L 332.611914 68.58729 
L 333.320251 68.176418 
L 333.792476 67.462033 
L 334.028588 67.579429 
L 334.264701 68.302995 
L 334.973038 68.89919 
L 335.20915 69.515866 
L 335.445263 69.574917 
L 335.917488 67.481204 
L 336.625825 66.238233 
L 336.861937 65.160156 
L 337.09805 64.633273 
L 337.570274 65.262341 
L 338.278612 65.712703 
L 338.514724 66.126995 
L 338.750836 66.873527 
L 338.986949 68.191409 
L 339.223061 72.150565 
L 339.931398 77.542416 
L 340.639736 101.194159 
L 340.875848 104.666302 
L 341.584185 106.662535 
L 342.528635 123.863582 
L 343.473084 128.721734 
L 344.181421 142.999642 
L 344.417534 148.107494 
L 345.125871 153.582006 
L 345.598096 160.503159 
L 345.834208 160.854206 
L 346.070321 161.490788 
L 346.778658 163.038612 
L 347.01477 164.445762 
L 347.250883 163.994101 
L 347.723107 159.428236 
L 348.431445 156.153542 
L 348.667557 152.458154 
L 348.903669 150.79721 
L 349.139782 150.358736 
L 349.375894 150.278944 
L 350.320344 151.461314 
L 350.556456 150.622171 
L 350.792569 150.339968 
L 351.028681 149.153316 
L 351.737018 148.470656 
L 351.973131 148.768145 
L 352.445355 153.395273 
L 352.681468 156.957348 
L 353.389805 160.143593 
L 354.334255 171.734009 
L 355.042592 176.016063 
L 355.278704 178.263856 
L 355.514817 178.808137 
L 355.750929 178.754184 
L 355.987041 179.131253 
L 356.695379 179.166549 
L 356.931491 179.059076 
L 357.167603 178.583586 
L 357.639828 176.396361 
L 358.348165 175.331677 
L 358.82039 170.924679 
L 359.292615 166.805199 
L 360.000952 165.317293 
L 360.237064 163.669674 
L 360.709289 159.613395 
L 360.945402 159.242404 
L 361.653739 158.791089 
L 361.889851 158.221403 
L 362.125964 159.955308 
L 362.598188 166.956531 
L 363.306526 172.558516 
L 364.014863 190.156183 
L 364.250975 193.723207 
L 364.959312 196.367447 
L 365.431537 198.94782 
L 365.66765 198.177252 
L 365.903762 195.601762 
L 366.612099 193.006709 
L 367.084324 186.97129 
L 367.556549 178.825873 
L 368.264886 177.849766 
L 368.500998 176.654599 
L 368.737111 174.259545 
L 369.209336 171.626316 
L 369.917673 169.520679 
L 370.862122 158.299593 
L 371.57046 157.008363 
L 371.806572 156.868259 
L 372.278797 159.190944 
L 372.514909 163.502601 
L 373.459359 169.011015 
L 373.695471 167.697814 
L 374.167696 163.624311 
L 374.876033 160.157947 
L 375.820483 142.303845 
L 376.52882 138.28069 
L 377.237157 127.476473 
L 377.473269 123.348811 
L 377.945494 117.811933 
L 378.181607 111.159586 
L 378.653831 106.402614 
L 378.889944 103.764383 
L 379.598281 101.84651 
L 380.542731 92.23038 
L 381.251068 89.597096 
L 382.195517 80.594222 
L 382.903855 78.574946 
L 383.848304 69.569299 
L 384.556641 69.302358 
L 384.792754 69.039104 
L 385.028866 68.587296 
L 385.501091 66.583355 
L 386.209428 65.669299 
L 386.681653 64.675873 
L 386.917765 64.194691 
L 387.153878 63.336647 
L 387.862215 62.333354 
L 388.33444 60.515318 
L 388.570552 60.776377 
L 388.806664 61.557458 
L 389.515002 62.310468 
L 389.751114 62.33721 
L 389.987226 62.226253 
L 390.223339 62.434223 
L 390.459451 62.105516 
L 391.167788 61.573871 
L 391.403901 61.040258 
L 391.640013 60.955809 
L 393.056688 61.311768 
L 393.765025 60.293119 
L 394.473362 59.836985 
L 395.417812 56.345207 
L 396.126149 55.886239 
L 397.070598 54.529028 
L 397.778936 55.135758 
L 398.015048 56.092184 
L 398.487273 57.202127 
L 398.487273 57.202127 
" clip-path="url(#pe24880a4de)" style="fill: none; stroke: #1f77b4; stroke-width: 1.5; stroke-linecap: square"/>
   </g>
   <g id="patch_3">
    <path d="M 57.6 276.48 
L 57.6 41.472 
" style="fill: none; stroke: #000000; stroke-width: 0.8; stroke-linejoin: miter; stroke-linecap: square"/>
   </g>
   <g id="patch_4">
    <path d="M 414.72 276.48 
L 414.72 41.472 
" style="fill: none; stroke: #000000; stroke-width: 0.8; stroke-linejoin: miter; stroke-linecap: square"/>
   </g>
   <g id="patch_5">
    <path d="M 57.6 276.48 
L 414.72 276.48 
" style="fill: none; stroke: #000000; stroke-width: 0.8; stroke-linejoin: miter; stroke-linecap: square"/>
   </g>
   <g id="patch_6">
    <path d="M 57.6 41.472 
L 414.72 41.472 
" style="fill: none; stroke: #000000; stroke-width: 0.8; stroke-linejoin: miter; stroke-linecap: square"/>
   </g>
   <g id="text_18">
    <!-- correlation between EURJPY and AUDNZD (window=90days) -->
    <g transform="translate(55.324688 35.472)scale(0.12 -0.12)">
     <defs>
      <path id="DejaVuSans-63" d="M 3122 3366 
L 3122 2828 
Q 2878 2963 2633 3030 
Q 2388 3097 2138 3097 
Q 1578 3097 1268 2742 
Q 959 2388 959 1747 
Q 959 1106 1268 751 
Q 1578 397 2138 397 
Q 2388 397 2633 464 
Q 2878 531 3122 666 
L 3122 134 
Q 2881 22 2623 -34 
Q 2366 -91 2075 -91 
Q 1284 -91 818 406 
Q 353 903 353 1747 
Q 353 2603 823 3093 
Q 1294 3584 2113 3584 
Q 2378 3584 2631 3529 
Q 2884 3475 3122 3366 
z
" transform="scale(0.015625)"/>
      <path id="DejaVuSans-6f" d="M 1959 3097 
Q 1497 3097 1228 2736 
Q 959 2375 959 1747 
Q 959 1119 1226 758 
Q 1494 397 1959 397 
Q 2419 397 2687 759 
Q 2956 1122 2956 1747 
Q 2956 2369 2687 2733 
Q 2419 3097 1959 3097 
z
M 1959 3584 
Q 2709 3584 3137 3096 
Q 3566 2609 3566 1747 
Q 3566 888 3137 398 
Q 2709 -91 1959 -91 
Q 1206 -91 779 398 
Q 353 888 353 1747 
Q 353 2609 779 3096 
Q 1206 3584 1959 3584 
z
" transform="scale(0.015625)"/>
      <path id="DejaVuSans-72" d="M 2631 2963 
Q 2534 3019 2420 3045 
Q 2306 3072 2169 3072 
Q 1681 3072 1420 2755 
Q 1159 2438 1159 1844 
L 1159 0 
L 581 0 
L 581 3500 
L 1159 3500 
L 1159 2956 
Q 1341 3275 1631 3429 
Q 1922 3584 2338 3584 
Q 2397 3584 2469 3576 
Q 2541 3569 2628 3553 
L 2631 2963 
z
" transform="scale(0.015625)"/>
      <path id="DejaVuSans-6c" d="M 603 4863 
L 1178 4863 
L 1178 0 
L 603 0 
L 603 4863 
z
" transform="scale(0.015625)"/>
      <path id="DejaVuSans-69" d="M 603 3500 
L 1178 3500 
L 1178 0 
L 603 0 
L 603 3500 
z
M 603 4863 
L 1178 4863 
L 1178 4134 
L 603 4134 
L 603 4863 
z
" transform="scale(0.015625)"/>
      <path id="DejaVuSans-6e" d="M 3513 2113 
L 3513 0 
L 2938 0 
L 2938 2094 
Q 2938 2591 2744 2837 
Q 2550 3084 2163 3084 
Q 1697 3084 1428 2787 
Q 1159 2491 1159 1978 
L 1159 0 
L 581 0 
L 581 3500 
L 1159 3500 
L 1159 2956 
Q 1366 3272 1645 3428 
Q 1925 3584 2291 3584 
Q 2894 3584 3203 3211 
Q 3513 2838 3513 2113 
z
" transform="scale(0.015625)"/>
      <path id="DejaVuSans-20" transform="scale(0.015625)"/>
      <path id="DejaVuSans-62" d="M 3116 1747 
Q 3116 2381 2855 2742 
Q 2594 3103 2138 3103 
Q 1681 3103 1420 2742 
Q 1159 2381 1159 1747 
Q 1159 1113 1420 752 
Q 1681 391 2138 391 
Q 2594 391 2855 752 
Q 3116 1113 3116 1747 
z
M 1159 2969 
Q 1341 3281 1617 3432 
Q 1894 3584 2278 3584 
Q 2916 3584 3314 3078 
Q 3713 2572 3713 1747 
Q 3713 922 3314 415 
Q 2916 -91 2278 -91 
Q 1894 -91 1617 61 
Q 1341 213 1159 525 
L 1159 0 
L 581 0 
L 581 4863 
L 1159 4863 
L 1159 2969 
z
" transform="scale(0.015625)"/>
      <path id="DejaVuSans-77" d="M 269 3500 
L 844 3500 
L 1563 769 
L 2278 3500 
L 2956 3500 
L 3675 769 
L 4391 3500 
L 4966 3500 
L 4050 0 
L 3372 0 
L 2619 2869 
L 1863 0 
L 1184 0 
L 269 3500 
z
" transform="scale(0.015625)"/>
      <path id="DejaVuSans-45" d="M 628 4666 
L 3578 4666 
L 3578 4134 
L 1259 4134 
L 1259 2753 
L 3481 2753 
L 3481 2222 
L 1259 2222 
L 1259 531 
L 3634 531 
L 3634 0 
L 628 0 
L 628 4666 
z
" transform="scale(0.015625)"/>
      <path id="DejaVuSans-55" d="M 556 4666 
L 1191 4666 
L 1191 1831 
Q 1191 1081 1462 751 
Q 1734 422 2344 422 
Q 2950 422 3222 751 
Q 3494 1081 3494 1831 
L 3494 4666 
L 4128 4666 
L 4128 1753 
Q 4128 841 3676 375 
Q 3225 -91 2344 -91 
Q 1459 -91 1007 375 
Q 556 841 556 1753 
L 556 4666 
z
" transform="scale(0.015625)"/>
      <path id="DejaVuSans-52" d="M 2841 2188 
Q 3044 2119 3236 1894 
Q 3428 1669 3622 1275 
L 4263 0 
L 3584 0 
L 2988 1197 
Q 2756 1666 2539 1819 
Q 2322 1972 1947 1972 
L 1259 1972 
L 1259 0 
L 628 0 
L 628 4666 
L 2053 4666 
Q 2853 4666 3247 4331 
Q 3641 3997 3641 3322 
Q 3641 2881 3436 2590 
Q 3231 2300 2841 2188 
z
M 1259 4147 
L 1259 2491 
L 2053 2491 
Q 2509 2491 2742 2702 
Q 2975 2913 2975 3322 
Q 2975 3731 2742 3939 
Q 2509 4147 2053 4147 
L 1259 4147 
z
" transform="scale(0.015625)"/>
      <path id="DejaVuSans-4a" d="M 628 4666 
L 1259 4666 
L 1259 325 
Q 1259 -519 939 -900 
Q 619 -1281 -91 -1281 
L -331 -1281 
L -331 -750 
L -134 -750 
Q 284 -750 456 -515 
Q 628 -281 628 325 
L 628 4666 
z
" transform="scale(0.015625)"/>
      <path id="DejaVuSans-50" d="M 1259 4147 
L 1259 2394 
L 2053 2394 
Q 2494 2394 2734 2622 
Q 2975 2850 2975 3272 
Q 2975 3691 2734 3919 
Q 2494 4147 2053 4147 
L 1259 4147 
z
M 628 4666 
L 2053 4666 
Q 2838 4666 3239 4311 
Q 3641 3956 3641 3272 
Q 3641 2581 3239 2228 
Q 2838 1875 2053 1875 
L 1259 1875 
L 1259 0 
L 628 0 
L 628 4666 
z
" transform="scale(0.015625)"/>
      <path id="DejaVuSans-59" d="M -13 4666 
L 666 4666 
L 1959 2747 
L 3244 4666 
L 3922 4666 
L 2272 2222 
L 2272 0 
L 1638 0 
L 1638 2222 
L -13 4666 
z
" transform="scale(0.015625)"/>
      <path id="DejaVuSans-64" d="M 2906 2969 
L 2906 4863 
L 3481 4863 
L 3481 0 
L 2906 0 
L 2906 525 
Q 2725 213 2448 61 
Q 2172 -91 1784 -91 
Q 1150 -91 751 415 
Q 353 922 353 1747 
Q 353 2572 751 3078 
Q 1150 3584 1784 3584 
Q 2172 3584 2448 3432 
Q 2725 3281 2906 2969 
z
M 947 1747 
Q 947 1113 1208 752 
Q 1469 391 1925 391 
Q 2381 391 2643 752 
Q 2906 1113 2906 1747 
Q 2906 2381 2643 2742 
Q 2381 3103 1925 3103 
Q 1469 3103 1208 2742 
Q 947 2381 947 1747 
z
" transform="scale(0.015625)"/>
      <path id="DejaVuSans-41" d="M 2188 4044 
L 1331 1722 
L 3047 1722 
L 2188 4044 
z
M 1831 4666 
L 2547 4666 
L 4325 0 
L 3669 0 
L 3244 1197 
L 1141 1197 
L 716 0 
L 50 0 
L 1831 4666 
z
" transform="scale(0.015625)"/>
      <path id="DejaVuSans-4e" d="M 628 4666 
L 1478 4666 
L 3547 763 
L 3547 4666 
L 4159 4666 
L 4159 0 
L 3309 0 
L 1241 3903 
L 1241 0 
L 628 0 
L 628 4666 
z
" transform="scale(0.015625)"/>
      <path id="DejaVuSans-5a" d="M 359 4666 
L 4025 4666 
L 4025 4184 
L 1075 531 
L 4097 531 
L 4097 0 
L 288 0 
L 288 481 
L 3238 4134 
L 359 4134 
L 359 4666 
z
" transform="scale(0.015625)"/>
      <path id="DejaVuSans-28" d="M 1984 4856 
Q 1566 4138 1362 3434 
Q 1159 2731 1159 2009 
Q 1159 1288 1364 580 
Q 1569 -128 1984 -844 
L 1484 -844 
Q 1016 -109 783 600 
Q 550 1309 550 2009 
Q 550 2706 781 3412 
Q 1013 4119 1484 4856 
L 1984 4856 
z
" transform="scale(0.015625)"/>
      <path id="DejaVuSans-3d" d="M 678 2906 
L 4684 2906 
L 4684 2381 
L 678 2381 
L 678 2906 
z
M 678 1631 
L 4684 1631 
L 4684 1100 
L 678 1100 
L 678 1631 
z
" transform="scale(0.015625)"/>
      <path id="DejaVuSans-79" d="M 2059 -325 
Q 1816 -950 1584 -1140 
Q 1353 -1331 966 -1331 
L 506 -1331 
L 506 -850 
L 844 -850 
Q 1081 -850 1212 -737 
Q 1344 -625 1503 -206 
L 1606 56 
L 191 3500 
L 800 3500 
L 1894 763 
L 2988 3500 
L 3597 3500 
L 2059 -325 
z
" transform="scale(0.015625)"/>
      <path id="DejaVuSans-73" d="M 2834 3397 
L 2834 2853 
Q 2591 2978 2328 3040 
Q 2066 3103 1784 3103 
Q 1356 3103 1142 2972 
Q 928 2841 928 2578 
Q 928 2378 1081 2264 
Q 1234 2150 1697 2047 
L 1894 2003 
Q 2506 1872 2764 1633 
Q 3022 1394 3022 966 
Q 3022 478 2636 193 
Q 2250 -91 1575 -91 
Q 1294 -91 989 -36 
Q 684 19 347 128 
L 347 722 
Q 666 556 975 473 
Q 1284 391 1588 391 
Q 1994 391 2212 530 
Q 2431 669 2431 922 
Q 2431 1156 2273 1281 
Q 2116 1406 1581 1522 
L 1381 1569 
Q 847 1681 609 1914 
Q 372 2147 372 2553 
Q 372 3047 722 3315 
Q 1072 3584 1716 3584 
Q 2034 3584 2315 3537 
Q 2597 3491 2834 3397 
z
" transform="scale(0.015625)"/>
      <path id="DejaVuSans-29" d="M 513 4856 
L 1013 4856 
Q 1481 4119 1714 3412 
Q 1947 2706 1947 2009 
Q 1947 1309 1714 600 
Q 1481 -109 1013 -844 
L 513 -844 
Q 928 -128 1133 580 
Q 1338 1288 1338 2009 
Q 1338 2731 1133 3434 
Q 928 4138 513 4856 
z
" transform="scale(0.015625)"/>
     </defs>
     <use xlink:href="#DejaVuSans-63"/>
     <use xlink:href="#DejaVuSans-6f" x="54.980469"/>
     <use xlink:href="#DejaVuSans-72" x="116.162109"/>
     <use xlink:href="#DejaVuSans-72" x="155.525391"/>
     <use xlink:href="#DejaVuSans-65" x="194.388672"/>
     <use xlink:href="#DejaVuSans-6c" x="255.912109"/>
     <use xlink:href="#DejaVuSans-61" x="283.695312"/>
     <use xlink:href="#DejaVuSans-74" x="344.974609"/>
     <use xlink:href="#DejaVuSans-69" x="384.183594"/>
     <use xlink:href="#DejaVuSans-6f" x="411.966797"/>
     <use xlink:href="#DejaVuSans-6e" x="473.148438"/>
     <use xlink:href="#DejaVuSans-20" x="536.527344"/>
     <use xlink:href="#DejaVuSans-62" x="568.314453"/>
     <use xlink:href="#DejaVuSans-65" x="631.791016"/>
     <use xlink:href="#DejaVuSans-74" x="693.314453"/>
     <use xlink:href="#DejaVuSans-77" x="732.523438"/>
     <use xlink:href="#DejaVuSans-65" x="814.310547"/>
     <use xlink:href="#DejaVuSans-65" x="875.833984"/>
     <use xlink:href="#DejaVuSans-6e" x="937.357422"/>
     <use xlink:href="#DejaVuSans-20" x="1000.736328"/>
     <use xlink:href="#DejaVuSans-45" x="1032.523438"/>
     <use xlink:href="#DejaVuSans-55" x="1095.707031"/>
     <use xlink:href="#DejaVuSans-52" x="1168.900391"/>
     <use xlink:href="#DejaVuSans-4a" x="1238.382812"/>
     <use xlink:href="#DejaVuSans-50" x="1267.875"/>
     <use xlink:href="#DejaVuSans-59" x="1325.927734"/>
     <use xlink:href="#DejaVuSans-20" x="1387.011719"/>
     <use xlink:href="#DejaVuSans-61" x="1418.798828"/>
     <use xlink:href="#DejaVuSans-6e" x="1480.078125"/>
     <use xlink:href="#DejaVuSans-64" x="1543.457031"/>
     <use xlink:href="#DejaVuSans-20" x="1606.933594"/>
     <use xlink:href="#DejaVuSans-41" x="1638.720703"/>
     <use xlink:href="#DejaVuSans-55" x="1707.128906"/>
     <use xlink:href="#DejaVuSans-44" x="1780.322266"/>
     <use xlink:href="#DejaVuSans-4e" x="1857.324219"/>
     <use xlink:href="#DejaVuSans-5a" x="1932.128906"/>
     <use xlink:href="#DejaVuSans-44" x="2000.634766"/>
     <use xlink:href="#DejaVuSans-20" x="2077.636719"/>
     <use xlink:href="#DejaVuSans-28" x="2109.423828"/>
     <use xlink:href="#DejaVuSans-77" x="2148.4375"/>
     <use xlink:href="#DejaVuSans-69" x="2230.224609"/>
     <use xlink:href="#DejaVuSans-6e" x="2258.007812"/>
     <use xlink:href="#DejaVuSans-64" x="2321.386719"/>
     <use xlink:href="#DejaVuSans-6f" x="2384.863281"/>
     <use xlink:href="#DejaVuSans-77" x="2446.044922"/>
     <use xlink:href="#DejaVuSans-3d" x="2527.832031"/>
     <use xlink:href="#DejaVuSans-39" x="2611.621094"/>
     <use xlink:href="#DejaVuSans-30" x="2675.244141"/>
     <use xlink:href="#DejaVuSans-64" x="2738.867188"/>
     <use xlink:href="#DejaVuSans-61" x="2802.34375"/>
     <use xlink:href="#DejaVuSans-79" x="2863.623047"/>
     <use xlink:href="#DejaVuSans-73" x="2922.802734"/>
     <use xlink:href="#DejaVuSans-29" x="2974.902344"/>
    </g>
   </g>
  </g>
 </g>
 <defs>
  <clipPath id="pe24880a4de">
   <rect x="57.6" y="41.472" width="357.12" height="235.008"/>
  </clipPath>
 </defs>
</svg>
